SplineFontDB: 3.0
FontName: fire_red
FullName: Fire Red Regular
FamilyName: Fire Red
Weight: Book
Copyright: Copyright KaelinT 2012
Version: 1.0
ItalicAngle: 0
UnderlinePosition: -25
UnderlineWidth: 51
Ascent: 819
Descent: 205
InvalidEm: 0
sfntRevision: 0x00010000
LayerCount: 2
Layer: 0 1 "Back" 1
Layer: 1 1 "Fore" 0
XUID: [1021 156 764776352 6124]
StyleMap: 0x0040
FSType: 4
OS2Version: 2
OS2_WeightWidthSlopeOnly: 0
OS2_UseTypoMetrics: 0
CreationTime: 1347216998
ModificationTime: 1554909585
PfmFamily: 81
TTFWeight: 400
TTFWidth: 5
LineGap: 0
VLineGap: 0
Panose: 0 0 4 0 0 0 0 0 0 0
OS2TypoAscent: 512
OS2TypoAOffset: 0
OS2TypoDescent: -128
OS2TypoDOffset: 0
OS2TypoLinegap: 0
OS2WinAscent: 768
OS2WinAOffset: 0
OS2WinDescent: 128
OS2WinDOffset: 0
HheadAscent: 768
HheadAOffset: 0
HheadDescent: -128
HheadDOffset: 0
OS2SubXSize: 512
OS2SubYSize: 512
OS2SubXOff: 0
OS2SubYOff: -64
OS2SupXSize: 512
OS2SupYSize: 512
OS2SupXOff: 0
OS2SupYOff: 512
OS2StrikeYSize: 51
OS2StrikeYPos: 204
OS2CapHeight: 512
OS2XHeight: 320
OS2Vendor: 'FSTR'
OS2CodePages: 00000001.00000000
OS2UnicodeRanges: 80000003.00000002.00000000.00000000
MarkAttachClasses: 1
DEI: 91125
ShortTable: maxp 16
  1
  0
  105
  52
  13
  0
  0
  2
  0
  0
  0
  0
  0
  0
  0
  0
EndShort
LangName: 1033 "" "" "Regular" "" "" "Version 1.0" "" "" "" "" "" "" "" "" "" "" "" "" "" "Five big quacking zephyrs jolt my wax bed"
GaspTable: 1 65535 2 0
Encoding: UnicodeBmp
UnicodeInterp: none
NameList: AGL For New Fonts
DisplaySize: -48
AntiAlias: 1
FitToEm: 0
WinInfo: 39 39 14
BeginPrivate: 0
EndPrivate
TeXData: 1 0 0 393216 196608 131072 327680 1048576 131072 783286 444596 497025 792723 393216 433062 380633 303038 157286 324010 404750 52429 2506097 1059062 262144
BeginChars: 65539 108

StartChar: .notdef
Encoding: 65536 -1 0
Width: 128
Flags: W
LayerCount: 2
Fore
SplineSet
256 72 m 1,0,-1
 256 154 l 1,1,-1
 174 154 l 1,2,-1
 174 72 l 1,3,-1
 256 72 l 1,0,-1
337 167 m 1,4,-1
 337 249 l 1,5,-1
 174 249 l 1,6,-1
 174 167 l 1,7,-1
 337 167 l 1,4,-1
256 262 m 1,8,-1
 256 344 l 1,9,-1
 174 344 l 1,10,-1
 174 262 l 1,11,-1
 256 262 l 1,8,-1
337 357 m 1,12,-1
 337 438 l 1,13,-1
 256 438 l 2,14,15
 222 438 222 438 198 415 c 0,16,17
 174 391 174 391 174 357 c 1,18,-1
 337 357 l 1,12,-1
0 0 m 1,19,-1
 0 512 l 1,20,-1
 512 512 l 1,21,-1
 512 0 l 1,22,-1
 0 0 l 1,19,-1
EndSplineSet
Validated: 1
EndChar

StartChar: exclam
Encoding: 33 33 4
Width: 128
GlyphClass: 2
Flags: W
LayerCount: 2
Fore
SplineSet
0 0 m 1,0,-1
 0 128 l 1,1,-1
 64 128 l 1,2,-1
 64 0 l 1,3,-1
 0 0 l 1,0,-1
0 192 m 1,4,-1
 0 640 l 1,5,-1
 64 640 l 1,6,-1
 64 192 l 1,7,-1
 0 192 l 1,4,-1
EndSplineSet
Validated: 1
EndChar

StartChar: quotedbl
Encoding: 34 34 5
Width: 256
GlyphClass: 2
Flags: W
LayerCount: 2
Fore
SplineSet
0 384 m 1,0,-1
 0 576 l 1,1,-1
 64 576 l 1,2,-1
 64 384 l 1,3,-1
 0 384 l 1,0,-1
128 384 m 1,4,-1
 128 576 l 1,5,-1
 192 576 l 1,6,-1
 192 384 l 1,7,-1
 128 384 l 1,4,-1
EndSplineSet
Validated: 1
EndChar

StartChar: numbersign
Encoding: 35 35 6
Width: 704
GlyphClass: 2
Flags: W
LayerCount: 2
Fore
SplineSet
64 0 m 1,0,-1
 64 128 l 1,1,-1
 128 128 l 1,2,-1
 128 0 l 1,3,-1
 64 0 l 1,0,-1
256 0 m 1,4,-1
 256 128 l 1,5,-1
 320 128 l 1,6,-1
 320 0 l 1,7,-1
 256 0 l 1,4,-1
384 256 m 1,8,-1
 384 384 l 1,9,-1
 256 384 l 1,10,-1
 256 256 l 1,11,-1
 384 256 l 1,8,-1
128 128 m 1,12,-1
 128 192 l 1,13,-1
 0 192 l 1,14,-1
 0 256 l 1,15,-1
 192 256 l 1,16,-1
 192 384 l 1,17,-1
 64 384 l 1,18,-1
 64 448 l 1,19,-1
 256 448 l 1,20,-1
 256 512 l 1,21,-1
 320 512 l 1,22,-1
 320 448 l 1,23,-1
 448 448 l 1,24,-1
 448 512 l 1,25,-1
 512 512 l 1,26,-1
 512 448 l 1,27,-1
 640 448 l 1,28,-1
 640 384 l 1,29,-1
 448 384 l 1,30,-1
 448 256 l 1,31,-1
 576 256 l 1,32,-1
 576 192 l 1,33,-1
 384 192 l 1,34,-1
 384 128 l 1,35,-1
 320 128 l 1,36,-1
 320 192 l 1,37,-1
 192 192 l 1,38,-1
 192 128 l 1,39,-1
 128 128 l 1,12,-1
320 512 m 1,40,-1
 320 640 l 1,41,-1
 384 640 l 1,42,-1
 384 512 l 1,43,-1
 320 512 l 1,40,-1
512 512 m 1,44,-1
 512 640 l 1,45,-1
 576 640 l 1,46,-1
 576 512 l 1,47,-1
 512 512 l 1,44,-1
EndSplineSet
Validated: 5
EndChar

StartChar: dollar
Encoding: 36 36 7
Width: 448
GlyphClass: 2
Flags: W
LayerCount: 2
Fore
SplineSet
256 384 m 1,0,-1
 256 576 l 1,1,-1
 320 576 l 1,2,-1
 320 384 l 1,3,-1
 256 384 l 1,0,-1
64 0 m 1,4,-1
 64 64 l 1,5,-1
 0 64 l 1,6,-1
 0 128 l 1,7,-1
 64 128 l 1,8,-1
 64 192 l 1,9,-1
 0 192 l 1,10,-1
 0 256 l 1,11,-1
 64 256 l 1,12,-1
 64 640 l 1,13,-1
 256 640 l 1,14,-1
 256 576 l 1,15,-1
 128 576 l 1,16,-1
 128 384 l 1,17,-1
 256 384 l 1,18,-1
 256 320 l 1,19,-1
 128 320 l 1,20,-1
 128 256 l 1,21,-1
 320 256 l 1,22,-1
 320 192 l 1,23,-1
 128 192 l 1,24,-1
 128 128 l 1,25,-1
 320 128 l 1,26,-1
 320 64 l 1,27,-1
 128 64 l 1,28,-1
 128 0 l 1,29,-1
 64 0 l 1,4,-1
EndSplineSet
Validated: 5
EndChar

StartChar: percent
Encoding: 37 37 8
Width: 512
GlyphClass: 2
Flags: W
LayerCount: 2
Fore
SplineSet
64 0 m 1,0,-1
 64 128 l 1,1,-1
 128 128 l 1,2,-1
 128 0 l 1,3,-1
 64 0 l 1,0,-1
320 64 m 1,4,-1
 320 128 l 1,5,-1
 384 128 l 1,6,-1
 384 64 l 1,7,-1
 320 64 l 1,4,-1
256 128 m 1,8,-1
 256 192 l 1,9,-1
 320 192 l 1,10,-1
 320 128 l 1,11,-1
 256 128 l 1,8,-1
384 128 m 1,12,-1
 384 192 l 1,13,-1
 448 192 l 1,14,-1
 448 128 l 1,15,-1
 384 128 l 1,12,-1
128 128 m 1,16,-1
 128 256 l 1,17,-1
 192 256 l 1,18,-1
 192 128 l 1,19,-1
 128 128 l 1,16,-1
320 192 m 1,20,-1
 320 256 l 1,21,-1
 384 256 l 1,22,-1
 384 192 l 1,23,-1
 320 192 l 1,20,-1
192 256 m 1,24,-1
 192 384 l 1,25,-1
 256 384 l 1,26,-1
 256 256 l 1,27,-1
 192 256 l 1,24,-1
64 384 m 1,28,-1
 64 448 l 1,29,-1
 128 448 l 1,30,-1
 128 384 l 1,31,-1
 64 384 l 1,28,-1
0 448 m 1,32,-1
 0 512 l 1,33,-1
 64 512 l 1,34,-1
 64 448 l 1,35,-1
 0 448 l 1,32,-1
128 448 m 1,36,-1
 128 512 l 1,37,-1
 192 512 l 1,38,-1
 192 448 l 1,39,-1
 128 448 l 1,36,-1
256 384 m 1,40,-1
 256 512 l 1,41,-1
 320 512 l 1,42,-1
 320 384 l 1,43,-1
 256 384 l 1,40,-1
64 512 m 1,44,-1
 64 576 l 1,45,-1
 128 576 l 1,46,-1
 128 512 l 1,47,-1
 64 512 l 1,44,-1
320 512 m 1,48,-1
 320 640 l 1,49,-1
 384 640 l 1,50,-1
 384 512 l 1,51,-1
 320 512 l 1,48,-1
EndSplineSet
Validated: 5
EndChar

StartChar: ampersand
Encoding: 38 38 9
Width: 384
GlyphClass: 2
Flags: W
LayerCount: 2
Fore
SplineSet
64 0 m 1,0,-1
 64 64 l 1,1,-1
 192 64 l 1,2,-1
 192 0 l 1,3,-1
 64 0 l 1,0,-1
256 0 m 1,4,-1
 256 64 l 1,5,-1
 320 64 l 1,6,-1
 320 0 l 1,7,-1
 256 0 l 1,4,-1
0 64 m 1,8,-1
 0 192 l 1,9,-1
 64 192 l 1,10,-1
 64 64 l 1,11,-1
 0 64 l 1,8,-1
64 192 m 1,12,-1
 64 256 l 1,13,-1
 128 256 l 1,14,-1
 128 192 l 1,15,-1
 64 192 l 1,12,-1
192 64 m 1,16,-1
 192 256 l 1,17,-1
 256 256 l 1,18,-1
 256 64 l 1,19,-1
 192 64 l 1,16,-1
256 256 m 1,20,-1
 256 320 l 1,21,-1
 320 320 l 1,22,-1
 320 256 l 1,23,-1
 256 256 l 1,20,-1
128 256 m 1,24,-1
 128 384 l 1,25,-1
 192 384 l 1,26,-1
 192 256 l 1,27,-1
 128 256 l 1,24,-1
64 384 m 1,28,-1
 64 512 l 1,29,-1
 128 512 l 1,30,-1
 128 384 l 1,31,-1
 64 384 l 1,28,-1
192 384 m 1,32,-1
 192 512 l 1,33,-1
 256 512 l 1,34,-1
 256 384 l 1,35,-1
 192 384 l 1,32,-1
128 512 m 1,36,-1
 128 576 l 1,37,-1
 192 576 l 1,38,-1
 192 512 l 1,39,-1
 128 512 l 1,36,-1
EndSplineSet
Validated: 5
EndChar

StartChar: quotesingle
Encoding: 39 39 10
Width: 192
GlyphClass: 2
Flags: W
LayerCount: 2
Fore
SplineSet
0 448 m 1,0,-1
 0 512 l 1,1,-1
 64 512 l 1,2,-1
 64 448 l 1,3,-1
 0 448 l 1,0,-1
64 512 m 1,4,-1
 64 576 l 1,5,-1
 0 576 l 1,6,-1
 0 704 l 1,7,-1
 128 704 l 1,8,-1
 128 512 l 1,9,-1
 64 512 l 1,4,-1
EndSplineSet
Validated: 5
EndChar

StartChar: parenleft
Encoding: 40 40 11
Width: 192
GlyphClass: 2
Flags: W
LayerCount: 2
Fore
SplineSet
64 0 m 1,0,-1
 64 64 l 1,1,-1
 128 64 l 1,2,-1
 128 0 l 1,3,-1
 64 0 l 1,0,-1
0 64 m 1,4,-1
 0 704 l 1,5,-1
 64 704 l 1,6,-1
 64 64 l 1,7,-1
 0 64 l 1,4,-1
64 704 m 1,8,-1
 64 768 l 1,9,-1
 128 768 l 1,10,-1
 128 704 l 1,11,-1
 64 704 l 1,8,-1
EndSplineSet
Validated: 5
EndChar

StartChar: parenright
Encoding: 41 41 12
Width: 192
GlyphClass: 2
Flags: W
LayerCount: 2
Fore
SplineSet
0 0 m 1,0,-1
 0 64 l 1,1,-1
 64 64 l 1,2,-1
 64 0 l 1,3,-1
 0 0 l 1,0,-1
64 64 m 1,4,-1
 64 704 l 1,5,-1
 128 704 l 1,6,-1
 128 64 l 1,7,-1
 64 64 l 1,4,-1
0 704 m 1,8,-1
 0 768 l 1,9,-1
 64 768 l 1,10,-1
 64 704 l 1,11,-1
 0 704 l 1,8,-1
EndSplineSet
Validated: 5
EndChar

StartChar: asterisk
Encoding: 42 42 13
Width: 256
GlyphClass: 2
Flags: W
LayerCount: 2
Fore
SplineSet
0 320 m 1,0,-1
 0 384 l 1,1,-1
 64 384 l 1,2,-1
 64 320 l 1,3,-1
 0 320 l 1,0,-1
128 320 m 1,4,-1
 128 384 l 1,5,-1
 192 384 l 1,6,-1
 192 320 l 1,7,-1
 128 320 l 1,4,-1
64 384 m 1,8,-1
 64 448 l 1,9,-1
 0 448 l 1,10,-1
 0 512 l 1,11,-1
 64 512 l 1,12,-1
 64 576 l 1,13,-1
 128 576 l 1,14,-1
 128 512 l 1,15,-1
 192 512 l 1,16,-1
 192 448 l 1,17,-1
 128 448 l 1,18,-1
 128 384 l 1,19,-1
 64 384 l 1,8,-1
EndSplineSet
Validated: 5
EndChar

StartChar: plus
Encoding: 43 43 14
Width: 384
GlyphClass: 2
Flags: W
LayerCount: 2
Fore
SplineSet
128 128 m 1,0,-1
 128 256 l 1,1,-1
 0 256 l 1,2,-1
 0 320 l 1,3,-1
 128 320 l 1,4,-1
 128 448 l 1,5,-1
 192 448 l 1,6,-1
 192 320 l 1,7,-1
 320 320 l 1,8,-1
 320 256 l 1,9,-1
 192 256 l 1,10,-1
 192 128 l 1,11,-1
 128 128 l 1,0,-1
EndSplineSet
Validated: 1
EndChar

StartChar: comma
Encoding: 44 44 15
Width: 320
GlyphClass: 2
Flags: W
LayerCount: 2
Fore
SplineSet
64 -128 m 1,0,-1
 64 -64 l 1,1,-1
 128 -64 l 1,2,-1
 128 -128 l 1,3,-1
 64 -128 l 1,0,-1
128 -64 m 1,4,-1
 128 0 l 1,5,-1
 64 0 l 1,6,-1
 64 128 l 1,7,-1
 192 128 l 1,8,-1
 192 -64 l 1,9,-1
 128 -64 l 1,4,-1
EndSplineSet
Validated: 5
EndChar

StartChar: hyphen
Encoding: 45 45 16
Width: 384
GlyphClass: 2
Flags: W
LayerCount: 2
Fore
SplineSet
0 256 m 1,0,-1
 0 320 l 1,1,-1
 320 320 l 1,2,-1
 320 256 l 1,3,-1
 0 256 l 1,0,-1
EndSplineSet
Validated: 1
EndChar

StartChar: period
Encoding: 46 46 17
Width: 320
GlyphClass: 2
Flags: W
LayerCount: 2
Fore
SplineSet
63 0 m 1,0,-1
 63 128 l 1,1,-1
 191 128 l 1,2,-1
 191 0 l 1,3,-1
 63 0 l 1,0,-1
EndSplineSet
Validated: 1
EndChar

StartChar: slash
Encoding: 47 47 18
Width: 384
GlyphClass: 2
Flags: W
LayerCount: 2
Fore
SplineSet
0 0 m 1,0,-1
 0 128 l 1,1,-1
 64 128 l 1,2,-1
 64 0 l 1,3,-1
 0 0 l 1,0,-1
64 128 m 1,4,-1
 64 256 l 1,5,-1
 128 256 l 1,6,-1
 128 128 l 1,7,-1
 64 128 l 1,4,-1
128 256 m 1,8,-1
 128 384 l 1,9,-1
 192 384 l 1,10,-1
 192 256 l 1,11,-1
 128 256 l 1,8,-1
192 384 m 1,12,-1
 192 512 l 1,13,-1
 256 512 l 1,14,-1
 256 384 l 1,15,-1
 192 384 l 1,12,-1
256 512 m 1,16,-1
 256 640 l 1,17,-1
 320 640 l 1,18,-1
 320 512 l 1,19,-1
 256 512 l 1,16,-1
EndSplineSet
Validated: 5
EndChar

StartChar: zero
Encoding: 48 48 19
Width: 384
GlyphClass: 2
Flags: W
LayerCount: 2
Fore
SplineSet
64 0 m 1,0,-1
 64 64 l 1,1,-1
 256 64 l 1,2,-1
 256 0 l 1,3,-1
 64 0 l 1,0,-1
0 64 m 1,4,-1
 0 512 l 1,5,-1
 64 512 l 1,6,-1
 64 64 l 1,7,-1
 0 64 l 1,4,-1
256 64 m 1,8,-1
 256 512 l 1,9,-1
 320 512 l 1,10,-1
 320 64 l 1,11,-1
 256 64 l 1,8,-1
64 512 m 1,12,-1
 64 576 l 1,13,-1
 256 576 l 1,14,-1
 256 512 l 1,15,-1
 64 512 l 1,12,-1
EndSplineSet
Validated: 5
EndChar

StartChar: one
Encoding: 49 49 20
Width: 384
GlyphClass: 2
Flags: W
LayerCount: 2
Fore
SplineSet
64 0 m 1,0,-1
 64 64 l 1,1,-1
 128 64 l 1,2,-1
 128 448 l 1,3,-1
 64 448 l 1,4,-1
 64 512 l 1,5,-1
 128 512 l 1,6,-1
 128 576 l 1,7,-1
 192 576 l 1,8,-1
 192 64 l 1,9,-1
 256 64 l 1,10,-1
 256 0 l 1,11,-1
 64 0 l 1,0,-1
EndSplineSet
Validated: 1
EndChar

StartChar: two
Encoding: 50 50 21
Width: 384
GlyphClass: 2
Flags: W
LayerCount: 2
Fore
SplineSet
0 0 m 1,0,-1
 0 128 l 1,1,-1
 64 128 l 1,2,-1
 64 64 l 1,3,-1
 320 64 l 1,4,-1
 320 0 l 1,5,-1
 0 0 l 1,0,-1
64 128 m 1,6,-1
 64 192 l 1,7,-1
 128 192 l 1,8,-1
 128 128 l 1,9,-1
 64 128 l 1,6,-1
128 192 m 1,10,-1
 128 256 l 1,11,-1
 192 256 l 1,12,-1
 192 192 l 1,13,-1
 128 192 l 1,10,-1
192 256 m 1,14,-1
 192 320 l 1,15,-1
 256 320 l 1,16,-1
 256 256 l 1,17,-1
 192 256 l 1,14,-1
0 384 m 1,18,-1
 0 512 l 1,19,-1
 64 512 l 1,20,-1
 64 384 l 1,21,-1
 0 384 l 1,18,-1
256 320 m 1,22,-1
 256 512 l 1,23,-1
 320 512 l 1,24,-1
 320 320 l 1,25,-1
 256 320 l 1,22,-1
64 512 m 1,26,-1
 64 576 l 1,27,-1
 256 576 l 1,28,-1
 256 512 l 1,29,-1
 64 512 l 1,26,-1
EndSplineSet
Validated: 5
EndChar

StartChar: three
Encoding: 51 51 22
Width: 384
GlyphClass: 2
Flags: W
LayerCount: 2
Fore
SplineSet
64 0 m 1,0,-1
 64 64 l 1,1,-1
 256 64 l 1,2,-1
 256 0 l 1,3,-1
 64 0 l 1,0,-1
0 64 m 1,4,-1
 0 128 l 1,5,-1
 64 128 l 1,6,-1
 64 64 l 1,7,-1
 0 64 l 1,4,-1
256 64 m 1,8,-1
 256 256 l 1,9,-1
 320 256 l 1,10,-1
 320 64 l 1,11,-1
 256 64 l 1,8,-1
128 256 m 1,12,-1
 128 320 l 1,13,-1
 256 320 l 1,14,-1
 256 256 l 1,15,-1
 128 256 l 1,12,-1
0 448 m 1,16,-1
 0 512 l 1,17,-1
 64 512 l 1,18,-1
 64 448 l 1,19,-1
 0 448 l 1,16,-1
256 320 m 1,20,-1
 256 512 l 1,21,-1
 320 512 l 1,22,-1
 320 320 l 1,23,-1
 256 320 l 1,20,-1
64 512 m 1,24,-1
 64 576 l 1,25,-1
 256 576 l 1,26,-1
 256 512 l 1,27,-1
 64 512 l 1,24,-1
EndSplineSet
Validated: 5
EndChar

StartChar: four
Encoding: 52 52 23
Width: 384
GlyphClass: 2
Flags: W
LayerCount: 2
Fore
SplineSet
64 384 m 1,0,-1
 64 512 l 1,1,-1
 128 512 l 1,2,-1
 128 384 l 1,3,-1
 64 384 l 1,0,-1
192 0 m 1,4,-1
 192 128 l 1,5,-1
 0 128 l 1,6,-1
 0 384 l 1,7,-1
 64 384 l 1,8,-1
 64 192 l 1,9,-1
 192 192 l 1,10,-1
 192 512 l 1,11,-1
 128 512 l 1,12,-1
 128 576 l 1,13,-1
 256 576 l 1,14,-1
 256 192 l 1,15,-1
 320 192 l 1,16,-1
 320 128 l 1,17,-1
 256 128 l 1,18,-1
 256 0 l 1,19,-1
 192 0 l 1,4,-1
EndSplineSet
Validated: 5
EndChar

StartChar: five
Encoding: 53 53 24
Width: 384
GlyphClass: 2
Flags: W
LayerCount: 2
Fore
SplineSet
64 0 m 1,0,-1
 64 64 l 1,1,-1
 256 64 l 1,2,-1
 256 0 l 1,3,-1
 64 0 l 1,0,-1
0 64 m 1,4,-1
 0 128 l 1,5,-1
 64 128 l 1,6,-1
 64 64 l 1,7,-1
 0 64 l 1,4,-1
256 64 m 1,8,-1
 256 256 l 1,9,-1
 320 256 l 1,10,-1
 320 64 l 1,11,-1
 256 64 l 1,8,-1
0 256 m 1,12,-1
 0 576 l 1,13,-1
 320 576 l 1,14,-1
 320 512 l 1,15,-1
 64 512 l 1,16,-1
 64 320 l 1,17,-1
 256 320 l 1,18,-1
 256 256 l 1,19,-1
 0 256 l 1,12,-1
EndSplineSet
Validated: 5
EndChar

StartChar: six
Encoding: 54 54 25
Width: 384
GlyphClass: 2
Flags: W
LayerCount: 2
Fore
SplineSet
64 0 m 1,0,-1
 64 64 l 1,1,-1
 256 64 l 1,2,-1
 256 0 l 1,3,-1
 64 0 l 1,0,-1
256 64 m 1,4,-1
 256 256 l 1,5,-1
 320 256 l 1,6,-1
 320 64 l 1,7,-1
 256 64 l 1,4,-1
0 64 m 1,8,-1
 0 512 l 1,9,-1
 64 512 l 1,10,-1
 64 320 l 1,11,-1
 256 320 l 1,12,-1
 256 256 l 1,13,-1
 64 256 l 1,14,-1
 64 64 l 1,15,-1
 0 64 l 1,8,-1
256 448 m 1,16,-1
 256 512 l 1,17,-1
 320 512 l 1,18,-1
 320 448 l 1,19,-1
 256 448 l 1,16,-1
64 512 m 1,20,-1
 64 576 l 1,21,-1
 256 576 l 1,22,-1
 256 512 l 1,23,-1
 64 512 l 1,20,-1
EndSplineSet
Validated: 5
EndChar

StartChar: seven
Encoding: 55 55 26
Width: 384
GlyphClass: 2
Flags: W
LayerCount: 2
Fore
SplineSet
128 0 m 1,0,-1
 128 192 l 1,1,-1
 192 192 l 1,2,-1
 192 0 l 1,3,-1
 128 0 l 1,0,-1
192 192 m 1,4,-1
 192 320 l 1,5,-1
 256 320 l 1,6,-1
 256 192 l 1,7,-1
 192 192 l 1,4,-1
256 320 m 1,8,-1
 256 512 l 1,9,-1
 0 512 l 1,10,-1
 0 576 l 1,11,-1
 320 576 l 1,12,-1
 320 320 l 1,13,-1
 256 320 l 1,8,-1
EndSplineSet
Validated: 5
EndChar

StartChar: eight
Encoding: 56 56 27
Width: 384
GlyphClass: 2
Flags: W
LayerCount: 2
Fore
SplineSet
64 0 m 1,0,-1
 64 64 l 1,1,-1
 256 64 l 1,2,-1
 256 0 l 1,3,-1
 64 0 l 1,0,-1
0 64 m 1,4,-1
 0 256 l 1,5,-1
 64 256 l 1,6,-1
 64 64 l 1,7,-1
 0 64 l 1,4,-1
256 64 m 1,8,-1
 256 256 l 1,9,-1
 320 256 l 1,10,-1
 320 64 l 1,11,-1
 256 64 l 1,8,-1
64 256 m 1,12,-1
 64 320 l 1,13,-1
 256 320 l 1,14,-1
 256 256 l 1,15,-1
 64 256 l 1,12,-1
0 320 m 1,16,-1
 0 512 l 1,17,-1
 64 512 l 1,18,-1
 64 320 l 1,19,-1
 0 320 l 1,16,-1
256 320 m 1,20,-1
 256 512 l 1,21,-1
 320 512 l 1,22,-1
 320 320 l 1,23,-1
 256 320 l 1,20,-1
64 512 m 1,24,-1
 64 576 l 1,25,-1
 256 576 l 1,26,-1
 256 512 l 1,27,-1
 64 512 l 1,24,-1
EndSplineSet
Validated: 5
EndChar

StartChar: nine
Encoding: 57 57 28
Width: 384
GlyphClass: 2
Flags: W
LayerCount: 2
Fore
SplineSet
64 0 m 1,0,-1
 64 64 l 1,1,-1
 256 64 l 1,2,-1
 256 0 l 1,3,-1
 64 0 l 1,0,-1
0 64 m 1,4,-1
 0 128 l 1,5,-1
 64 128 l 1,6,-1
 64 64 l 1,7,-1
 0 64 l 1,4,-1
0 320 m 1,8,-1
 0 512 l 1,9,-1
 64 512 l 1,10,-1
 64 320 l 1,11,-1
 0 320 l 1,8,-1
256 64 m 1,12,-1
 256 256 l 1,13,-1
 64 256 l 1,14,-1
 64 320 l 1,15,-1
 256 320 l 1,16,-1
 256 512 l 1,17,-1
 320 512 l 1,18,-1
 320 64 l 1,19,-1
 256 64 l 1,12,-1
64 512 m 1,20,-1
 64 576 l 1,21,-1
 256 576 l 1,22,-1
 256 512 l 1,23,-1
 64 512 l 1,20,-1
EndSplineSet
Validated: 5
EndChar

StartChar: colon
Encoding: 58 58 29
Width: 320
GlyphClass: 2
Flags: W
LayerCount: 2
Fore
SplineSet
64 64 m 1,0,-1
 64 192 l 1,1,-1
 192 192 l 1,2,-1
 192 64 l 1,3,-1
 64 64 l 1,0,-1
64 320 m 1,4,-1
 64 448 l 1,5,-1
 192 448 l 1,6,-1
 192 320 l 1,7,-1
 64 320 l 1,4,-1
EndSplineSet
Validated: 1
EndChar

StartChar: semicolon
Encoding: 59 59 30
Width: 192
GlyphClass: 2
Flags: W
LayerCount: 2
Fore
SplineSet
0 -64 m 1,0,-1
 0 0 l 1,1,-1
 64 0 l 1,2,-1
 64 -64 l 1,3,-1
 0 -64 l 1,0,-1
64 0 m 1,4,-1
 64 64 l 1,5,-1
 0 64 l 1,6,-1
 0 192 l 1,7,-1
 128 192 l 1,8,-1
 128 0 l 1,9,-1
 64 0 l 1,4,-1
0 320 m 1,10,-1
 0 448 l 1,11,-1
 128 448 l 1,12,-1
 128 320 l 1,13,-1
 0 320 l 1,10,-1
EndSplineSet
Validated: 5
EndChar

StartChar: less
Encoding: 60 60 31
Width: 384
GlyphClass: 2
Flags: W
LayerCount: 2
Fore
SplineSet
256 0 m 1,0,-1
 256 64 l 1,1,-1
 320 64 l 1,2,-1
 320 0 l 1,3,-1
 256 0 l 1,0,-1
192 64 m 1,4,-1
 192 128 l 1,5,-1
 256 128 l 1,6,-1
 256 64 l 1,7,-1
 192 64 l 1,4,-1
128 128 m 1,8,-1
 128 192 l 1,9,-1
 192 192 l 1,10,-1
 192 128 l 1,11,-1
 128 128 l 1,8,-1
64 192 m 1,12,-1
 64 256 l 1,13,-1
 128 256 l 1,14,-1
 128 192 l 1,15,-1
 64 192 l 1,12,-1
0 256 m 1,16,-1
 0 384 l 1,17,-1
 64 384 l 1,18,-1
 64 256 l 1,19,-1
 0 256 l 1,16,-1
64 384 m 1,20,-1
 64 448 l 1,21,-1
 128 448 l 1,22,-1
 128 384 l 1,23,-1
 64 384 l 1,20,-1
128 448 m 1,24,-1
 128 512 l 1,25,-1
 192 512 l 1,26,-1
 192 448 l 1,27,-1
 128 448 l 1,24,-1
192 512 m 1,28,-1
 192 576 l 1,29,-1
 256 576 l 1,30,-1
 256 512 l 1,31,-1
 192 512 l 1,28,-1
256 576 m 1,32,-1
 256 640 l 1,33,-1
 320 640 l 1,34,-1
 320 576 l 1,35,-1
 256 576 l 1,32,-1
EndSplineSet
Validated: 5
EndChar

StartChar: equal
Encoding: 61 61 32
Width: 384
GlyphClass: 2
Flags: W
LayerCount: 2
Fore
SplineSet
0 128 m 1,0,-1
 0 192 l 1,1,-1
 320 192 l 1,2,-1
 320 128 l 1,3,-1
 0 128 l 1,0,-1
0 320 m 1,4,-1
 0 384 l 1,5,-1
 320 384 l 1,6,-1
 320 320 l 1,7,-1
 0 320 l 1,4,-1
EndSplineSet
Validated: 1
EndChar

StartChar: greater
Encoding: 62 62 33
Width: 384
GlyphClass: 2
Flags: W
LayerCount: 2
Fore
SplineSet
0 0 m 1,0,-1
 0 64 l 1,1,-1
 64 64 l 1,2,-1
 64 0 l 1,3,-1
 0 0 l 1,0,-1
64 64 m 1,4,-1
 64 128 l 1,5,-1
 128 128 l 1,6,-1
 128 64 l 1,7,-1
 64 64 l 1,4,-1
128 128 m 1,8,-1
 128 192 l 1,9,-1
 192 192 l 1,10,-1
 192 128 l 1,11,-1
 128 128 l 1,8,-1
192 192 m 1,12,-1
 192 256 l 1,13,-1
 256 256 l 1,14,-1
 256 192 l 1,15,-1
 192 192 l 1,12,-1
256 256 m 1,16,-1
 256 384 l 1,17,-1
 320 384 l 1,18,-1
 320 256 l 1,19,-1
 256 256 l 1,16,-1
192 384 m 1,20,-1
 192 448 l 1,21,-1
 256 448 l 1,22,-1
 256 384 l 1,23,-1
 192 384 l 1,20,-1
128 448 m 1,24,-1
 128 512 l 1,25,-1
 192 512 l 1,26,-1
 192 448 l 1,27,-1
 128 448 l 1,24,-1
64 512 m 1,28,-1
 64 576 l 1,29,-1
 128 576 l 1,30,-1
 128 512 l 1,31,-1
 64 512 l 1,28,-1
0 576 m 1,32,-1
 0 640 l 1,33,-1
 64 640 l 1,34,-1
 64 576 l 1,35,-1
 0 576 l 1,32,-1
EndSplineSet
Validated: 5
EndChar

StartChar: question
Encoding: 63 63 34
Width: 384
GlyphClass: 2
Flags: W
LayerCount: 2
Fore
SplineSet
128 0 m 1,0,-1
 128 128 l 1,1,-1
 192 128 l 1,2,-1
 192 0 l 1,3,-1
 128 0 l 1,0,-1
128 192 m 1,4,-1
 128 384 l 1,5,-1
 256 384 l 1,6,-1
 256 320 l 1,7,-1
 192 320 l 1,8,-1
 192 192 l 1,9,-1
 128 192 l 1,4,-1
0 384 m 1,10,-1
 0 576 l 1,11,-1
 64 576 l 1,12,-1
 64 384 l 1,13,-1
 0 384 l 1,10,-1
256 384 m 1,14,-1
 256 576 l 1,15,-1
 320 576 l 1,16,-1
 320 384 l 1,17,-1
 256 384 l 1,14,-1
64 576 m 1,18,-1
 64 640 l 1,19,-1
 256 640 l 1,20,-1
 256 576 l 1,21,-1
 64 576 l 1,18,-1
EndSplineSet
Validated: 5
EndChar

StartChar: at
Encoding: 64 64 35
Width: 704
GlyphClass: 2
Flags: W
LayerCount: 2
Fore
SplineSet
128 0 m 1,0,-1
 128 64 l 1,1,-1
 384 64 l 1,2,-1
 384 0 l 1,3,-1
 128 0 l 1,0,-1
64 64 m 1,4,-1
 64 128 l 1,5,-1
 128 128 l 1,6,-1
 128 64 l 1,7,-1
 64 64 l 1,4,-1
448 64 m 1,8,-1
 448 128 l 1,9,-1
 576 128 l 1,10,-1
 576 64 l 1,11,-1
 448 64 l 1,8,-1
192 128 m 1,12,-1
 192 192 l 1,13,-1
 320 192 l 1,14,-1
 320 128 l 1,15,-1
 192 128 l 1,12,-1
128 192 m 1,16,-1
 128 384 l 1,17,-1
 192 384 l 1,18,-1
 192 192 l 1,19,-1
 128 192 l 1,16,-1
0 128 m 1,20,-1
 0 448 l 1,21,-1
 64 448 l 1,22,-1
 64 128 l 1,23,-1
 0 128 l 1,20,-1
384 128 m 1,24,-1
 384 192 l 1,25,-1
 320 192 l 1,26,-1
 320 256 l 1,27,-1
 384 256 l 1,28,-1
 384 384 l 1,29,-1
 192 384 l 1,30,-1
 192 448 l 1,31,-1
 448 448 l 1,32,-1
 448 128 l 1,33,-1
 384 128 l 1,24,-1
576 128 m 1,34,-1
 576 448 l 1,35,-1
 640 448 l 1,36,-1
 640 128 l 1,37,-1
 576 128 l 1,34,-1
64 448 m 1,38,-1
 64 512 l 1,39,-1
 128 512 l 1,40,-1
 128 448 l 1,41,-1
 64 448 l 1,38,-1
512 448 m 1,42,-1
 512 512 l 1,43,-1
 576 512 l 1,44,-1
 576 448 l 1,45,-1
 512 448 l 1,42,-1
128 512 m 1,46,-1
 128 576 l 1,47,-1
 512 576 l 1,48,-1
 512 512 l 1,49,-1
 128 512 l 1,46,-1
EndSplineSet
Validated: 5
EndChar

StartChar: A
Encoding: 65 65 36
Width: 384
GlyphClass: 2
Flags: W
LayerCount: 2
Fore
SplineSet
0 0 m 1,0,-1
 0 448 l 1,1,-1
 64 448 l 1,2,-1
 64 256 l 1,3,-1
 256 256 l 1,4,-1
 256 448 l 1,5,-1
 320 448 l 1,6,-1
 320 0 l 1,7,-1
 256 0 l 1,8,-1
 256 192 l 1,9,-1
 64 192 l 1,10,-1
 64 0 l 1,11,-1
 0 0 l 1,0,-1
64 448 m 1,12,-1
 64 512 l 1,13,-1
 256 512 l 1,14,-1
 256 448 l 1,15,-1
 64 448 l 1,12,-1
EndSplineSet
Validated: 5
EndChar

StartChar: B
Encoding: 66 66 37
Width: 384
GlyphClass: 2
Flags: W
LayerCount: 2
Fore
SplineSet
256 64 m 1,0,-1
 256 256 l 1,1,-1
 320 256 l 1,2,-1
 320 64 l 1,3,-1
 256 64 l 1,0,-1
256 320 m 1,4,-1
 256 448 l 1,5,-1
 320 448 l 1,6,-1
 320 320 l 1,7,-1
 256 320 l 1,4,-1
0 0 m 1,8,-1
 0 512 l 1,9,-1
 256 512 l 1,10,-1
 256 448 l 1,11,-1
 64 448 l 1,12,-1
 64 320 l 1,13,-1
 256 320 l 1,14,-1
 256 256 l 1,15,-1
 64 256 l 1,16,-1
 64 64 l 1,17,-1
 256 64 l 1,18,-1
 256 0 l 1,19,-1
 0 0 l 1,8,-1
EndSplineSet
Validated: 5
EndChar

StartChar: C
Encoding: 67 67 38
Width: 384
GlyphClass: 2
Flags: W
LayerCount: 2
Fore
SplineSet
64 0 m 1,0,-1
 64 64 l 1,1,-1
 256 64 l 1,2,-1
 256 0 l 1,3,-1
 64 0 l 1,0,-1
256 64 m 1,4,-1
 256 128 l 1,5,-1
 320 128 l 1,6,-1
 320 64 l 1,7,-1
 256 64 l 1,4,-1
0 64 m 1,8,-1
 0 448 l 1,9,-1
 64 448 l 1,10,-1
 64 64 l 1,11,-1
 0 64 l 1,8,-1
256 384 m 1,12,-1
 256 448 l 1,13,-1
 320 448 l 1,14,-1
 320 384 l 1,15,-1
 256 384 l 1,12,-1
64 448 m 1,16,-1
 64 512 l 1,17,-1
 256 512 l 1,18,-1
 256 448 l 1,19,-1
 64 448 l 1,16,-1
EndSplineSet
Validated: 5
EndChar

StartChar: D
Encoding: 68 68 39
Width: 384
GlyphClass: 2
Flags: W
LayerCount: 2
Fore
SplineSet
256 64 m 1,0,-1
 256 448 l 1,1,-1
 320 448 l 1,2,-1
 320 64 l 1,3,-1
 256 64 l 1,0,-1
0 0 m 1,4,-1
 0 512 l 1,5,-1
 256 512 l 1,6,-1
 256 448 l 1,7,-1
 64 448 l 1,8,-1
 64 64 l 1,9,-1
 256 64 l 1,10,-1
 256 0 l 1,11,-1
 0 0 l 1,4,-1
EndSplineSet
Validated: 5
EndChar

StartChar: E
Encoding: 69 69 40
Width: 384
GlyphClass: 2
Flags: W
LayerCount: 2
Fore
SplineSet
0 0 m 1,0,-1
 0 512 l 1,1,-1
 320 512 l 1,2,-1
 320 448 l 1,3,-1
 64 448 l 1,4,-1
 64 320 l 1,5,-1
 256 320 l 1,6,-1
 256 256 l 1,7,-1
 64 256 l 1,8,-1
 64 64 l 1,9,-1
 320 64 l 1,10,-1
 320 0 l 1,11,-1
 0 0 l 1,0,-1
EndSplineSet
Validated: 1
EndChar

StartChar: F
Encoding: 70 70 41
Width: 384
GlyphClass: 2
Flags: W
LayerCount: 2
Fore
SplineSet
0 0 m 1,0,-1
 0 512 l 1,1,-1
 320 512 l 1,2,-1
 320 448 l 1,3,-1
 64 448 l 1,4,-1
 64 320 l 1,5,-1
 256 320 l 1,6,-1
 256 256 l 1,7,-1
 64 256 l 1,8,-1
 64 0 l 1,9,-1
 0 0 l 1,0,-1
EndSplineSet
Validated: 1
EndChar

StartChar: G
Encoding: 71 71 42
Width: 384
GlyphClass: 2
Flags: W
LayerCount: 2
Fore
SplineSet
64 0 m 1,0,-1
 64 64 l 1,1,-1
 256 64 l 1,2,-1
 256 0 l 1,3,-1
 64 0 l 1,0,-1
256 64 m 1,4,-1
 256 192 l 1,5,-1
 192 192 l 1,6,-1
 192 256 l 1,7,-1
 320 256 l 1,8,-1
 320 64 l 1,9,-1
 256 64 l 1,4,-1
0 64 m 1,10,-1
 0 448 l 1,11,-1
 64 448 l 1,12,-1
 64 64 l 1,13,-1
 0 64 l 1,10,-1
256 320 m 1,14,-1
 256 448 l 1,15,-1
 320 448 l 1,16,-1
 320 320 l 1,17,-1
 256 320 l 1,14,-1
64 448 m 1,18,-1
 64 512 l 1,19,-1
 256 512 l 1,20,-1
 256 448 l 1,21,-1
 64 448 l 1,18,-1
EndSplineSet
Validated: 5
EndChar

StartChar: H
Encoding: 72 72 43
Width: 384
GlyphClass: 2
Flags: W
LayerCount: 2
Fore
SplineSet
0 0 m 1,0,-1
 0 512 l 1,1,-1
 64 512 l 1,2,-1
 64 320 l 1,3,-1
 256 320 l 1,4,-1
 256 512 l 1,5,-1
 320 512 l 1,6,-1
 320 0 l 1,7,-1
 256 0 l 1,8,-1
 256 256 l 1,9,-1
 64 256 l 1,10,-1
 64 0 l 1,11,-1
 0 0 l 1,0,-1
EndSplineSet
Validated: 1
EndChar

StartChar: I
Encoding: 73 73 44
Width: 384
GlyphClass: 2
Flags: W
LayerCount: 2
Fore
SplineSet
0 0 m 1,0,-1
 0 64 l 1,1,-1
 128 64 l 1,2,-1
 128 448 l 1,3,-1
 0 448 l 1,4,-1
 0 512 l 1,5,-1
 320 512 l 1,6,-1
 320 448 l 1,7,-1
 192 448 l 1,8,-1
 192 64 l 1,9,-1
 320 64 l 1,10,-1
 320 0 l 1,11,-1
 0 0 l 1,0,-1
EndSplineSet
Validated: 1
EndChar

StartChar: J
Encoding: 74 74 45
Width: 384
GlyphClass: 2
Flags: W
LayerCount: 2
Fore
SplineSet
64 0 m 1,0,-1
 64 64 l 1,1,-1
 256 64 l 1,2,-1
 256 0 l 1,3,-1
 64 0 l 1,0,-1
0 64 m 1,4,-1
 0 128 l 1,5,-1
 64 128 l 1,6,-1
 64 64 l 1,7,-1
 0 64 l 1,4,-1
256 64 m 1,8,-1
 256 512 l 1,9,-1
 320 512 l 1,10,-1
 320 64 l 1,11,-1
 256 64 l 1,8,-1
EndSplineSet
Validated: 5
EndChar

StartChar: K
Encoding: 75 75 46
Width: 384
GlyphClass: 2
Flags: W
LayerCount: 2
Fore
SplineSet
256 0 m 1,0,-1
 256 64 l 1,1,-1
 320 64 l 1,2,-1
 320 0 l 1,3,-1
 256 0 l 1,0,-1
192 64 m 1,4,-1
 192 128 l 1,5,-1
 256 128 l 1,6,-1
 256 64 l 1,7,-1
 192 64 l 1,4,-1
128 128 m 1,8,-1
 128 192 l 1,9,-1
 192 192 l 1,10,-1
 192 128 l 1,11,-1
 128 128 l 1,8,-1
128 320 m 1,12,-1
 128 384 l 1,13,-1
 192 384 l 1,14,-1
 192 320 l 1,15,-1
 128 320 l 1,12,-1
192 384 m 1,16,-1
 192 448 l 1,17,-1
 256 448 l 1,18,-1
 256 384 l 1,19,-1
 192 384 l 1,16,-1
0 0 m 1,20,-1
 0 512 l 1,21,-1
 64 512 l 1,22,-1
 64 320 l 1,23,-1
 128 320 l 1,24,-1
 128 192 l 1,25,-1
 64 192 l 1,26,-1
 64 0 l 1,27,-1
 0 0 l 1,20,-1
256 448 m 1,28,-1
 256 512 l 1,29,-1
 320 512 l 1,30,-1
 320 448 l 1,31,-1
 256 448 l 1,28,-1
EndSplineSet
Validated: 5
EndChar

StartChar: L
Encoding: 76 76 47
Width: 384
GlyphClass: 2
Flags: W
LayerCount: 2
Fore
SplineSet
0 0 m 1,0,-1
 0 512 l 1,1,-1
 64 512 l 1,2,-1
 64 64 l 1,3,-1
 320 64 l 1,4,-1
 320 0 l 1,5,-1
 0 0 l 1,0,-1
EndSplineSet
Validated: 1
EndChar

StartChar: M
Encoding: 77 77 48
Width: 384
GlyphClass: 2
Flags: W
LayerCount: 2
Fore
SplineSet
128 192 m 1,0,-1
 128 320 l 1,1,-1
 192 320 l 1,2,-1
 192 192 l 1,3,-1
 128 192 l 1,0,-1
0 0 m 1,4,-1
 0 512 l 1,5,-1
 64 512 l 1,6,-1
 64 448 l 1,7,-1
 128 448 l 1,8,-1
 128 320 l 1,9,-1
 64 320 l 1,10,-1
 64 0 l 1,11,-1
 0 0 l 1,4,-1
256 0 m 1,12,-1
 256 320 l 1,13,-1
 192 320 l 1,14,-1
 192 448 l 1,15,-1
 256 448 l 1,16,-1
 256 512 l 1,17,-1
 320 512 l 1,18,-1
 320 0 l 1,19,-1
 256 0 l 1,12,-1
EndSplineSet
Validated: 5
EndChar

StartChar: N
Encoding: 78 78 49
Width: 384
GlyphClass: 2
Flags: W
LayerCount: 2
Fore
SplineSet
128 256 m 1,0,-1
 128 320 l 1,1,-1
 192 320 l 1,2,-1
 192 256 l 1,3,-1
 128 256 l 1,0,-1
0 0 m 1,4,-1
 0 512 l 1,5,-1
 64 512 l 1,6,-1
 64 448 l 1,7,-1
 128 448 l 1,8,-1
 128 320 l 1,9,-1
 64 320 l 1,10,-1
 64 0 l 1,11,-1
 0 0 l 1,4,-1
256 0 m 1,12,-1
 256 128 l 1,13,-1
 192 128 l 1,14,-1
 192 256 l 1,15,-1
 256 256 l 1,16,-1
 256 512 l 1,17,-1
 320 512 l 1,18,-1
 320 0 l 1,19,-1
 256 0 l 1,12,-1
EndSplineSet
Validated: 5
EndChar

StartChar: O
Encoding: 79 79 50
Width: 384
GlyphClass: 2
Flags: W
LayerCount: 2
Fore
SplineSet
64 0 m 1,0,-1
 64 64 l 1,1,-1
 256 64 l 1,2,-1
 256 0 l 1,3,-1
 64 0 l 1,0,-1
0 64 m 1,4,-1
 0 448 l 1,5,-1
 64 448 l 1,6,-1
 64 64 l 1,7,-1
 0 64 l 1,4,-1
256 64 m 1,8,-1
 256 448 l 1,9,-1
 320 448 l 1,10,-1
 320 64 l 1,11,-1
 256 64 l 1,8,-1
64 448 m 1,12,-1
 64 512 l 1,13,-1
 256 512 l 1,14,-1
 256 448 l 1,15,-1
 64 448 l 1,12,-1
EndSplineSet
Validated: 5
EndChar

StartChar: P
Encoding: 80 80 51
Width: 384
GlyphClass: 2
Flags: W
LayerCount: 2
Fore
SplineSet
256 256 m 1,0,-1
 256 448 l 1,1,-1
 320 448 l 1,2,-1
 320 256 l 1,3,-1
 256 256 l 1,0,-1
0 0 m 1,4,-1
 0 512 l 1,5,-1
 256 512 l 1,6,-1
 256 448 l 1,7,-1
 64 448 l 1,8,-1
 64 256 l 1,9,-1
 256 256 l 1,10,-1
 256 192 l 1,11,-1
 64 192 l 1,12,-1
 64 0 l 1,13,-1
 0 0 l 1,4,-1
EndSplineSet
Validated: 5
EndChar

StartChar: Q
Encoding: 81 81 52
Width: 448
GlyphClass: 2
Flags: W
LayerCount: 2
Fore
SplineSet
320 0 m 1,0,-1
 320 64 l 1,1,-1
 384 64 l 1,2,-1
 384 0 l 1,3,-1
 320 0 l 1,0,-1
0 64 m 1,4,-1
 0 448 l 1,5,-1
 64 448 l 1,6,-1
 64 192 l 1,7,-1
 192 192 l 1,8,-1
 192 128 l 1,9,-1
 64 128 l 1,10,-1
 64 64 l 1,11,-1
 0 64 l 1,4,-1
64 0 m 1,12,-1
 64 64 l 1,13,-1
 192 64 l 1,14,-1
 192 128 l 1,15,-1
 256 128 l 1,16,-1
 256 448 l 1,17,-1
 320 448 l 1,18,-1
 320 64 l 1,19,-1
 256 64 l 1,20,-1
 256 0 l 1,21,-1
 64 0 l 1,12,-1
64 448 m 1,22,-1
 64 512 l 1,23,-1
 256 512 l 1,24,-1
 256 448 l 1,25,-1
 64 448 l 1,22,-1
EndSplineSet
Validated: 5
EndChar

StartChar: R
Encoding: 82 82 53
Width: 384
GlyphClass: 2
Flags: W
LayerCount: 2
Fore
SplineSet
256 0 m 1,0,-1
 256 128 l 1,1,-1
 320 128 l 1,2,-1
 320 0 l 1,3,-1
 256 0 l 1,0,-1
256 256 m 1,4,-1
 256 448 l 1,5,-1
 320 448 l 1,6,-1
 320 256 l 1,7,-1
 256 256 l 1,4,-1
0 0 m 1,8,-1
 0 512 l 1,9,-1
 256 512 l 1,10,-1
 256 448 l 1,11,-1
 64 448 l 1,12,-1
 64 256 l 1,13,-1
 256 256 l 1,14,-1
 256 128 l 1,15,-1
 192 128 l 1,16,-1
 192 192 l 1,17,-1
 64 192 l 1,18,-1
 64 0 l 1,19,-1
 0 0 l 1,8,-1
EndSplineSet
Validated: 5
EndChar

StartChar: S
Encoding: 83 83 54
Width: 384
GlyphClass: 2
Flags: W
LayerCount: 2
Fore
SplineSet
64 0 m 1,0,-1
 64 64 l 1,1,-1
 256 64 l 1,2,-1
 256 0 l 1,3,-1
 64 0 l 1,0,-1
0 64 m 1,4,-1
 0 128 l 1,5,-1
 64 128 l 1,6,-1
 64 64 l 1,7,-1
 0 64 l 1,4,-1
256 64 m 1,8,-1
 256 192 l 1,9,-1
 320 192 l 1,10,-1
 320 64 l 1,11,-1
 256 64 l 1,8,-1
192 192 m 1,12,-1
 192 256 l 1,13,-1
 256 256 l 1,14,-1
 256 192 l 1,15,-1
 192 192 l 1,12,-1
64 256 m 1,16,-1
 64 320 l 1,17,-1
 192 320 l 1,18,-1
 192 256 l 1,19,-1
 64 256 l 1,16,-1
0 320 m 1,20,-1
 0 448 l 1,21,-1
 64 448 l 1,22,-1
 64 320 l 1,23,-1
 0 320 l 1,20,-1
256 384 m 1,24,-1
 256 448 l 1,25,-1
 320 448 l 1,26,-1
 320 384 l 1,27,-1
 256 384 l 1,24,-1
64 448 m 1,28,-1
 64 512 l 1,29,-1
 256 512 l 1,30,-1
 256 448 l 1,31,-1
 64 448 l 1,28,-1
EndSplineSet
Validated: 5
EndChar

StartChar: T
Encoding: 84 84 55
Width: 384
GlyphClass: 2
Flags: W
LayerCount: 2
Fore
SplineSet
128 0 m 1,0,-1
 128 448 l 1,1,-1
 0 448 l 1,2,-1
 0 512 l 1,3,-1
 320 512 l 1,4,-1
 320 448 l 1,5,-1
 192 448 l 1,6,-1
 192 0 l 1,7,-1
 128 0 l 1,0,-1
EndSplineSet
Validated: 1
EndChar

StartChar: U
Encoding: 85 85 56
Width: 384
GlyphClass: 2
Flags: W
LayerCount: 2
Fore
SplineSet
64 0 m 1,0,-1
 64 64 l 1,1,-1
 256 64 l 1,2,-1
 256 0 l 1,3,-1
 64 0 l 1,0,-1
0 64 m 1,4,-1
 0 512 l 1,5,-1
 64 512 l 1,6,-1
 64 64 l 1,7,-1
 0 64 l 1,4,-1
256 64 m 1,8,-1
 256 512 l 1,9,-1
 320 512 l 1,10,-1
 320 64 l 1,11,-1
 256 64 l 1,8,-1
EndSplineSet
Validated: 5
EndChar

StartChar: V
Encoding: 86 86 57
Width: 384
GlyphClass: 2
Flags: W
LayerCount: 2
Fore
SplineSet
128 0 m 1,0,-1
 128 128 l 1,1,-1
 192 128 l 1,2,-1
 192 0 l 1,3,-1
 128 0 l 1,0,-1
64 128 m 1,4,-1
 64 256 l 1,5,-1
 128 256 l 1,6,-1
 128 128 l 1,7,-1
 64 128 l 1,4,-1
192 128 m 1,8,-1
 192 256 l 1,9,-1
 256 256 l 1,10,-1
 256 128 l 1,11,-1
 192 128 l 1,8,-1
0 256 m 1,12,-1
 0 512 l 1,13,-1
 64 512 l 1,14,-1
 64 256 l 1,15,-1
 0 256 l 1,12,-1
256 256 m 1,16,-1
 256 512 l 1,17,-1
 320 512 l 1,18,-1
 320 256 l 1,19,-1
 256 256 l 1,16,-1
EndSplineSet
Validated: 5
EndChar

StartChar: W
Encoding: 87 87 58
Width: 384
GlyphClass: 2
Flags: W
LayerCount: 2
Fore
SplineSet
128 192 m 1,0,-1
 128 320 l 1,1,-1
 192 320 l 1,2,-1
 192 192 l 1,3,-1
 128 192 l 1,0,-1
0 0 m 1,4,-1
 0 512 l 1,5,-1
 64 512 l 1,6,-1
 64 192 l 1,7,-1
 128 192 l 1,8,-1
 128 64 l 1,9,-1
 64 64 l 1,10,-1
 64 0 l 1,11,-1
 0 0 l 1,4,-1
256 0 m 1,12,-1
 256 64 l 1,13,-1
 192 64 l 1,14,-1
 192 192 l 1,15,-1
 256 192 l 1,16,-1
 256 512 l 1,17,-1
 320 512 l 1,18,-1
 320 0 l 1,19,-1
 256 0 l 1,12,-1
EndSplineSet
Validated: 5
EndChar

StartChar: X
Encoding: 88 88 59
Width: 384
GlyphClass: 2
Flags: W
LayerCount: 2
Fore
SplineSet
0 0 m 1,0,-1
 0 128 l 1,1,-1
 64 128 l 1,2,-1
 64 0 l 1,3,-1
 0 0 l 1,0,-1
256 0 m 1,4,-1
 256 128 l 1,5,-1
 320 128 l 1,6,-1
 320 0 l 1,7,-1
 256 0 l 1,4,-1
64 128 m 1,8,-1
 64 192 l 1,9,-1
 128 192 l 1,10,-1
 128 128 l 1,11,-1
 64 128 l 1,8,-1
192 128 m 1,12,-1
 192 192 l 1,13,-1
 256 192 l 1,14,-1
 256 128 l 1,15,-1
 192 128 l 1,12,-1
128 192 m 1,16,-1
 128 320 l 1,17,-1
 192 320 l 1,18,-1
 192 192 l 1,19,-1
 128 192 l 1,16,-1
64 320 m 1,20,-1
 64 384 l 1,21,-1
 128 384 l 1,22,-1
 128 320 l 1,23,-1
 64 320 l 1,20,-1
192 320 m 1,24,-1
 192 384 l 1,25,-1
 256 384 l 1,26,-1
 256 320 l 1,27,-1
 192 320 l 1,24,-1
0 384 m 1,28,-1
 0 512 l 1,29,-1
 64 512 l 1,30,-1
 64 384 l 1,31,-1
 0 384 l 1,28,-1
256 384 m 1,32,-1
 256 512 l 1,33,-1
 320 512 l 1,34,-1
 320 384 l 1,35,-1
 256 384 l 1,32,-1
EndSplineSet
Validated: 5
EndChar

StartChar: Y
Encoding: 89 89 60
Width: 384
GlyphClass: 2
Flags: W
LayerCount: 2
Fore
SplineSet
128 0 m 1,0,-1
 128 256 l 1,1,-1
 192 256 l 1,2,-1
 192 0 l 1,3,-1
 128 0 l 1,0,-1
64 256 m 1,4,-1
 64 384 l 1,5,-1
 128 384 l 1,6,-1
 128 256 l 1,7,-1
 64 256 l 1,4,-1
192 256 m 1,8,-1
 192 384 l 1,9,-1
 256 384 l 1,10,-1
 256 256 l 1,11,-1
 192 256 l 1,8,-1
0 384 m 1,12,-1
 0 512 l 1,13,-1
 64 512 l 1,14,-1
 64 384 l 1,15,-1
 0 384 l 1,12,-1
256 384 m 1,16,-1
 256 512 l 1,17,-1
 320 512 l 1,18,-1
 320 384 l 1,19,-1
 256 384 l 1,16,-1
EndSplineSet
Validated: 5
EndChar

StartChar: Z
Encoding: 90 90 61
Width: 384
GlyphClass: 2
Flags: W
LayerCount: 2
Fore
SplineSet
0 0 m 1,0,-1
 0 128 l 1,1,-1
 64 128 l 1,2,-1
 64 64 l 1,3,-1
 320 64 l 1,4,-1
 320 0 l 1,5,-1
 0 0 l 1,0,-1
64 128 m 1,6,-1
 64 192 l 1,7,-1
 128 192 l 1,8,-1
 128 128 l 1,9,-1
 64 128 l 1,6,-1
128 192 m 1,10,-1
 128 320 l 1,11,-1
 192 320 l 1,12,-1
 192 192 l 1,13,-1
 128 192 l 1,10,-1
192 320 m 1,14,-1
 192 384 l 1,15,-1
 256 384 l 1,16,-1
 256 320 l 1,17,-1
 192 320 l 1,14,-1
256 384 m 1,18,-1
 256 448 l 1,19,-1
 0 448 l 1,20,-1
 0 512 l 1,21,-1
 320 512 l 1,22,-1
 320 384 l 1,23,-1
 256 384 l 1,18,-1
EndSplineSet
Validated: 5
EndChar

StartChar: bracketleft
Encoding: 91 91 62
Width: 192
GlyphClass: 2
Flags: W
LayerCount: 2
Fore
SplineSet
0 0 m 1,0,-1
 0 768 l 1,1,-1
 128 768 l 1,2,-1
 128 704 l 1,3,-1
 64 704 l 1,4,-1
 64 64 l 1,5,-1
 128 64 l 1,6,-1
 128 0 l 1,7,-1
 0 0 l 1,0,-1
EndSplineSet
Validated: 1
EndChar

StartChar: backslash
Encoding: 92 92 63
Width: 384
GlyphClass: 2
Flags: W
LayerCount: 2
Fore
SplineSet
256 0 m 1,0,-1
 256 128 l 1,1,-1
 320 128 l 1,2,-1
 320 0 l 1,3,-1
 256 0 l 1,0,-1
192 128 m 1,4,-1
 192 256 l 1,5,-1
 256 256 l 1,6,-1
 256 128 l 1,7,-1
 192 128 l 1,4,-1
128 256 m 1,8,-1
 128 384 l 1,9,-1
 192 384 l 1,10,-1
 192 256 l 1,11,-1
 128 256 l 1,8,-1
64 384 m 1,12,-1
 64 512 l 1,13,-1
 128 512 l 1,14,-1
 128 384 l 1,15,-1
 64 384 l 1,12,-1
0 512 m 1,16,-1
 0 640 l 1,17,-1
 64 640 l 1,18,-1
 64 512 l 1,19,-1
 0 512 l 1,16,-1
EndSplineSet
Validated: 5
EndChar

StartChar: bracketright
Encoding: 93 93 64
Width: 192
GlyphClass: 2
Flags: W
LayerCount: 2
Fore
SplineSet
0 0 m 1,0,-1
 0 64 l 1,1,-1
 64 64 l 1,2,-1
 64 704 l 1,3,-1
 0 704 l 1,4,-1
 0 768 l 1,5,-1
 128 768 l 1,6,-1
 128 0 l 1,7,-1
 0 0 l 1,0,-1
EndSplineSet
Validated: 1
EndChar

StartChar: asciicircum
Encoding: 94 94 65
Width: 384
GlyphClass: 2
Flags: W
LayerCount: 2
Fore
SplineSet
0 320 m 1,0,-1
 0 448 l 1,1,-1
 64 448 l 1,2,-1
 64 320 l 1,3,-1
 0 320 l 1,0,-1
256 320 m 1,4,-1
 256 448 l 1,5,-1
 320 448 l 1,6,-1
 320 320 l 1,7,-1
 256 320 l 1,4,-1
64 448 m 1,8,-1
 64 576 l 1,9,-1
 128 576 l 1,10,-1
 128 448 l 1,11,-1
 64 448 l 1,8,-1
192 448 m 1,12,-1
 192 576 l 1,13,-1
 256 576 l 1,14,-1
 256 448 l 1,15,-1
 192 448 l 1,12,-1
128 576 m 1,16,-1
 128 640 l 1,17,-1
 192 640 l 1,18,-1
 192 576 l 1,19,-1
 128 576 l 1,16,-1
EndSplineSet
Validated: 5
EndChar

StartChar: underscore
Encoding: 95 95 66
Width: 384
GlyphClass: 2
Flags: W
LayerCount: 2
Fore
SplineSet
0 -64 m 1,0,-1
 0 0 l 1,1,-1
 320 0 l 1,2,-1
 320 -64 l 1,3,-1
 0 -64 l 1,0,-1
EndSplineSet
Validated: 1
EndChar

StartChar: grave
Encoding: 96 96 67
Width: 192
GlyphClass: 2
Flags: W
LayerCount: 2
Fore
SplineSet
0 448 m 1,0,-1
 0 512 l 1,1,-1
 64 512 l 1,2,-1
 64 448 l 1,3,-1
 0 448 l 1,0,-1
64 512 m 1,4,-1
 64 576 l 1,5,-1
 0 576 l 1,6,-1
 0 704 l 1,7,-1
 128 704 l 1,8,-1
 128 512 l 1,9,-1
 64 512 l 1,4,-1
EndSplineSet
Validated: 5
EndChar

StartChar: a
Encoding: 97 97 68
Width: 384
GlyphClass: 2
Flags: W
LayerCount: 2
Fore
SplineSet
64 0 m 1,0,-1
 64 64 l 1,1,-1
 192 64 l 1,2,-1
 192 0 l 1,3,-1
 64 0 l 1,0,-1
0 64 m 1,4,-1
 0 256 l 1,5,-1
 64 256 l 1,6,-1
 64 64 l 1,7,-1
 0 64 l 1,4,-1
256 0 m 1,8,-1
 256 64 l 1,9,-1
 192 64 l 1,10,-1
 192 128 l 1,11,-1
 256 128 l 1,12,-1
 256 256 l 1,13,-1
 64 256 l 1,14,-1
 64 320 l 1,15,-1
 320 320 l 1,16,-1
 320 0 l 1,17,-1
 256 0 l 1,8,-1
EndSplineSet
Validated: 5
EndChar

StartChar: b
Encoding: 98 98 69
Width: 384
GlyphClass: 2
Flags: W
LayerCount: 2
Fore
SplineSet
256 64 m 1,0,-1
 256 256 l 1,1,-1
 320 256 l 1,2,-1
 320 64 l 1,3,-1
 256 64 l 1,0,-1
0 0 m 1,4,-1
 0 512 l 1,5,-1
 64 512 l 1,6,-1
 64 320 l 1,7,-1
 256 320 l 1,8,-1
 256 256 l 1,9,-1
 64 256 l 1,10,-1
 64 64 l 1,11,-1
 256 64 l 1,12,-1
 256 0 l 1,13,-1
 0 0 l 1,4,-1
EndSplineSet
Validated: 5
EndChar

StartChar: c
Encoding: 99 99 70
Width: 384
GlyphClass: 2
Flags: W
LayerCount: 2
Fore
SplineSet
64 0 m 1,0,-1
 64 64 l 1,1,-1
 256 64 l 1,2,-1
 256 0 l 1,3,-1
 64 0 l 1,0,-1
256 64 m 1,4,-1
 256 128 l 1,5,-1
 320 128 l 1,6,-1
 320 64 l 1,7,-1
 256 64 l 1,4,-1
0 64 m 1,8,-1
 0 256 l 1,9,-1
 64 256 l 1,10,-1
 64 64 l 1,11,-1
 0 64 l 1,8,-1
256 192 m 1,12,-1
 256 256 l 1,13,-1
 320 256 l 1,14,-1
 320 192 l 1,15,-1
 256 192 l 1,12,-1
64 256 m 1,16,-1
 64 320 l 1,17,-1
 256 320 l 1,18,-1
 256 256 l 1,19,-1
 64 256 l 1,16,-1
EndSplineSet
Validated: 5
EndChar

StartChar: d
Encoding: 100 100 71
Width: 384
GlyphClass: 2
Flags: W
LayerCount: 2
Fore
SplineSet
0 64 m 1,0,-1
 0 256 l 1,1,-1
 64 256 l 1,2,-1
 64 64 l 1,3,-1
 0 64 l 1,0,-1
64 0 m 1,4,-1
 64 64 l 1,5,-1
 256 64 l 1,6,-1
 256 256 l 1,7,-1
 64 256 l 1,8,-1
 64 320 l 1,9,-1
 256 320 l 1,10,-1
 256 512 l 1,11,-1
 320 512 l 1,12,-1
 320 0 l 1,13,-1
 64 0 l 1,4,-1
EndSplineSet
Validated: 5
EndChar

StartChar: e
Encoding: 101 101 72
Width: 384
GlyphClass: 2
Flags: W
LayerCount: 2
Fore
SplineSet
64 0 m 1,0,-1
 64 64 l 1,1,-1
 320 64 l 1,2,-1
 320 0 l 1,3,-1
 64 0 l 1,0,-1
0 64 m 1,4,-1
 0 256 l 1,5,-1
 64 256 l 1,6,-1
 64 192 l 1,7,-1
 256 192 l 1,8,-1
 256 256 l 1,9,-1
 320 256 l 1,10,-1
 320 128 l 1,11,-1
 64 128 l 1,12,-1
 64 64 l 1,13,-1
 0 64 l 1,4,-1
64 256 m 1,14,-1
 64 320 l 1,15,-1
 256 320 l 1,16,-1
 256 256 l 1,17,-1
 64 256 l 1,14,-1
EndSplineSet
Validated: 5
EndChar

StartChar: f
Encoding: 102 102 73
Width: 320
GlyphClass: 2
Flags: W
LayerCount: 2
Fore
SplineSet
64 0 m 1,0,-1
 64 256 l 1,1,-1
 0 256 l 1,2,-1
 0 320 l 1,3,-1
 64 320 l 1,4,-1
 64 448 l 1,5,-1
 128 448 l 1,6,-1
 128 320 l 1,7,-1
 256 320 l 1,8,-1
 256 256 l 1,9,-1
 128 256 l 1,10,-1
 128 0 l 1,11,-1
 64 0 l 1,0,-1
128 448 m 1,12,-1
 128 512 l 1,13,-1
 256 512 l 1,14,-1
 256 448 l 1,15,-1
 128 448 l 1,12,-1
EndSplineSet
Validated: 5
EndChar

StartChar: g
Encoding: 103 103 74
Width: 384
GlyphClass: 2
Flags: W
LayerCount: 2
Fore
SplineSet
64 -128 m 1,0,-1
 64 -64 l 1,1,-1
 256 -64 l 1,2,-1
 256 -128 l 1,3,-1
 64 -128 l 1,0,-1
0 64 m 1,4,-1
 0 256 l 1,5,-1
 64 256 l 1,6,-1
 64 64 l 1,7,-1
 0 64 l 1,4,-1
256 -64 m 1,8,-1
 256 0 l 1,9,-1
 64 0 l 1,10,-1
 64 64 l 1,11,-1
 256 64 l 1,12,-1
 256 256 l 1,13,-1
 320 256 l 1,14,-1
 320 -64 l 1,15,-1
 256 -64 l 1,8,-1
64 256 m 1,16,-1
 64 320 l 1,17,-1
 256 320 l 1,18,-1
 256 256 l 1,19,-1
 64 256 l 1,16,-1
EndSplineSet
Validated: 5
EndChar

StartChar: h
Encoding: 104 104 75
Width: 384
GlyphClass: 2
Flags: W
LayerCount: 2
Fore
SplineSet
256 0 m 1,0,-1
 256 256 l 1,1,-1
 320 256 l 1,2,-1
 320 0 l 1,3,-1
 256 0 l 1,0,-1
0 0 m 1,4,-1
 0 512 l 1,5,-1
 64 512 l 1,6,-1
 64 320 l 1,7,-1
 256 320 l 1,8,-1
 256 256 l 1,9,-1
 64 256 l 1,10,-1
 64 0 l 1,11,-1
 0 0 l 1,4,-1
EndSplineSet
Validated: 5
EndChar

StartChar: i
Encoding: 105 105 76
Width: 128
GlyphClass: 2
Flags: W
LayerCount: 2
Fore
SplineSet
0 0 m 1,0,-1
 0 320 l 1,1,-1
 64 320 l 1,2,-1
 64 0 l 1,3,-1
 0 0 l 1,0,-1
0 448 m 1,4,-1
 0 512 l 1,5,-1
 64 512 l 1,6,-1
 64 448 l 1,7,-1
 0 448 l 1,4,-1
EndSplineSet
Validated: 1
EndChar

StartChar: j
Encoding: 106 106 77
Width: 320
GlyphClass: 2
Flags: W
LayerCount: 2
Fore
SplineSet
64 -128 m 1,0,-1
 64 -64 l 1,1,-1
 192 -64 l 1,2,-1
 192 -128 l 1,3,-1
 64 -128 l 1,0,-1
0 -64 m 1,4,-1
 0 64 l 1,5,-1
 64 64 l 1,6,-1
 64 -64 l 1,7,-1
 0 -64 l 1,4,-1
192 -64 m 1,8,-1
 192 320 l 1,9,-1
 256 320 l 1,10,-1
 256 -64 l 1,11,-1
 192 -64 l 1,8,-1
192 448 m 1,12,-1
 192 512 l 1,13,-1
 256 512 l 1,14,-1
 256 448 l 1,15,-1
 192 448 l 1,12,-1
EndSplineSet
Validated: 5
EndChar

StartChar: k
Encoding: 107 107 78
Width: 320
GlyphClass: 2
Flags: W
LayerCount: 2
Fore
SplineSet
192 0 m 1,0,-1
 192 64 l 1,1,-1
 256 64 l 1,2,-1
 256 0 l 1,3,-1
 192 0 l 1,0,-1
128 64 m 1,4,-1
 128 128 l 1,5,-1
 192 128 l 1,6,-1
 192 64 l 1,7,-1
 128 64 l 1,4,-1
128 192 m 1,8,-1
 128 256 l 1,9,-1
 192 256 l 1,10,-1
 192 192 l 1,11,-1
 128 192 l 1,8,-1
192 256 m 1,12,-1
 192 320 l 1,13,-1
 256 320 l 1,14,-1
 256 256 l 1,15,-1
 192 256 l 1,12,-1
0 0 m 1,16,-1
 0 512 l 1,17,-1
 64 512 l 1,18,-1
 64 192 l 1,19,-1
 128 192 l 1,20,-1
 128 128 l 1,21,-1
 64 128 l 1,22,-1
 64 0 l 1,23,-1
 0 0 l 1,16,-1
EndSplineSet
Validated: 5
EndChar

StartChar: l
Encoding: 108 108 79
Width: 192
GlyphClass: 2
Flags: W
LayerCount: 2
Fore
SplineSet
64 0 m 1,0,-1
 64 448 l 1,1,-1
 0 448 l 1,2,-1
 0 512 l 1,3,-1
 128 512 l 1,4,-1
 128 0 l 1,5,-1
 64 0 l 1,0,-1
EndSplineSet
Validated: 1
EndChar

StartChar: m
Encoding: 109 109 80
Width: 384
GlyphClass: 2
Flags: W
LayerCount: 2
Fore
SplineSet
256 0 m 1,0,-1
 256 256 l 1,1,-1
 320 256 l 1,2,-1
 320 0 l 1,3,-1
 256 0 l 1,0,-1
0 0 m 1,4,-1
 0 320 l 1,5,-1
 256 320 l 1,6,-1
 256 256 l 1,7,-1
 192 256 l 1,8,-1
 192 0 l 1,9,-1
 128 0 l 1,10,-1
 128 256 l 1,11,-1
 64 256 l 1,12,-1
 64 0 l 1,13,-1
 0 0 l 1,4,-1
EndSplineSet
Validated: 5
EndChar

StartChar: n
Encoding: 110 110 81
Width: 320
GlyphClass: 2
Flags: W
LayerCount: 2
Fore
SplineSet
192 0 m 1,0,-1
 192 256 l 1,1,-1
 256 256 l 1,2,-1
 256 0 l 1,3,-1
 192 0 l 1,0,-1
0 0 m 1,4,-1
 0 320 l 1,5,-1
 192 320 l 1,6,-1
 192 256 l 1,7,-1
 64 256 l 1,8,-1
 64 0 l 1,9,-1
 0 0 l 1,4,-1
EndSplineSet
Validated: 5
EndChar

StartChar: o
Encoding: 111 111 82
Width: 384
GlyphClass: 2
Flags: W
LayerCount: 2
Fore
SplineSet
64 0 m 1,0,-1
 64 64 l 1,1,-1
 256 64 l 1,2,-1
 256 0 l 1,3,-1
 64 0 l 1,0,-1
0 64 m 1,4,-1
 0 256 l 1,5,-1
 64 256 l 1,6,-1
 64 64 l 1,7,-1
 0 64 l 1,4,-1
256 64 m 1,8,-1
 256 256 l 1,9,-1
 320 256 l 1,10,-1
 320 64 l 1,11,-1
 256 64 l 1,8,-1
64 256 m 1,12,-1
 64 320 l 1,13,-1
 256 320 l 1,14,-1
 256 256 l 1,15,-1
 64 256 l 1,12,-1
EndSplineSet
Validated: 5
EndChar

StartChar: p
Encoding: 112 112 83
Width: 384
GlyphClass: 2
Flags: W
LayerCount: 2
Fore
SplineSet
256 64 m 1,0,-1
 256 256 l 1,1,-1
 320 256 l 1,2,-1
 320 64 l 1,3,-1
 256 64 l 1,0,-1
0 -128 m 1,4,-1
 0 320 l 1,5,-1
 256 320 l 1,6,-1
 256 256 l 1,7,-1
 64 256 l 1,8,-1
 64 64 l 1,9,-1
 256 64 l 1,10,-1
 256 0 l 1,11,-1
 64 0 l 1,12,-1
 64 -128 l 1,13,-1
 0 -128 l 1,4,-1
EndSplineSet
Validated: 5
EndChar

StartChar: q
Encoding: 113 113 84
Width: 384
GlyphClass: 2
Flags: W
LayerCount: 2
Fore
SplineSet
0 64 m 1,0,-1
 0 256 l 1,1,-1
 64 256 l 1,2,-1
 64 64 l 1,3,-1
 0 64 l 1,0,-1
256 -128 m 1,4,-1
 256 0 l 1,5,-1
 64 0 l 1,6,-1
 64 64 l 1,7,-1
 256 64 l 1,8,-1
 256 256 l 1,9,-1
 64 256 l 1,10,-1
 64 320 l 1,11,-1
 320 320 l 1,12,-1
 320 -128 l 1,13,-1
 256 -128 l 1,4,-1
EndSplineSet
Validated: 5
EndChar

StartChar: r
Encoding: 114 114 85
Width: 320
GlyphClass: 2
Flags: W
LayerCount: 2
Fore
SplineSet
0 0 m 1,0,-1
 0 320 l 1,1,-1
 64 320 l 1,2,-1
 64 256 l 1,3,-1
 128 256 l 1,4,-1
 128 192 l 1,5,-1
 64 192 l 1,6,-1
 64 0 l 1,7,-1
 0 0 l 1,0,-1
128 256 m 1,8,-1
 128 320 l 1,9,-1
 256 320 l 1,10,-1
 256 256 l 1,11,-1
 128 256 l 1,8,-1
EndSplineSet
Validated: 5
EndChar

StartChar: s
Encoding: 115 115 86
Width: 320
GlyphClass: 2
Flags: W
LayerCount: 2
Fore
SplineSet
0 0 m 1,0,-1
 0 64 l 1,1,-1
 192 64 l 1,2,-1
 192 128 l 1,3,-1
 256 128 l 1,4,-1
 256 0 l 1,5,-1
 0 0 l 1,0,-1
64 128 m 1,6,-1
 64 192 l 1,7,-1
 192 192 l 1,8,-1
 192 128 l 1,9,-1
 64 128 l 1,6,-1
0 192 m 1,10,-1
 0 320 l 1,11,-1
 256 320 l 1,12,-1
 256 256 l 1,13,-1
 64 256 l 1,14,-1
 64 192 l 1,15,-1
 0 192 l 1,10,-1
EndSplineSet
Validated: 5
EndChar

StartChar: t
Encoding: 116 116 87
Width: 320
GlyphClass: 2
Flags: W
LayerCount: 2
Fore
SplineSet
64 0 m 1,0,-1
 64 256 l 1,1,-1
 0 256 l 1,2,-1
 0 320 l 1,3,-1
 64 320 l 1,4,-1
 64 448 l 1,5,-1
 128 448 l 1,6,-1
 128 320 l 1,7,-1
 256 320 l 1,8,-1
 256 256 l 1,9,-1
 128 256 l 1,10,-1
 128 64 l 1,11,-1
 256 64 l 1,12,-1
 256 0 l 1,13,-1
 64 0 l 1,0,-1
EndSplineSet
Validated: 1
EndChar

StartChar: u
Encoding: 117 117 88
Width: 384
GlyphClass: 2
Flags: W
LayerCount: 2
Fore
SplineSet
64 0 m 1,0,-1
 64 64 l 1,1,-1
 192 64 l 1,2,-1
 192 0 l 1,3,-1
 64 0 l 1,0,-1
256 0 m 1,4,-1
 256 64 l 1,5,-1
 320 64 l 1,6,-1
 320 0 l 1,7,-1
 256 0 l 1,4,-1
0 64 m 1,8,-1
 0 320 l 1,9,-1
 64 320 l 1,10,-1
 64 64 l 1,11,-1
 0 64 l 1,8,-1
192 64 m 1,12,-1
 192 320 l 1,13,-1
 256 320 l 1,14,-1
 256 64 l 1,15,-1
 192 64 l 1,12,-1
EndSplineSet
Validated: 5
EndChar

StartChar: v
Encoding: 118 118 89
Width: 384
GlyphClass: 2
Flags: W
LayerCount: 2
Fore
SplineSet
128 0 m 1,0,-1
 128 64 l 1,1,-1
 192 64 l 1,2,-1
 192 0 l 1,3,-1
 128 0 l 1,0,-1
64 64 m 1,4,-1
 64 192 l 1,5,-1
 128 192 l 1,6,-1
 128 64 l 1,7,-1
 64 64 l 1,4,-1
192 64 m 1,8,-1
 192 192 l 1,9,-1
 256 192 l 1,10,-1
 256 64 l 1,11,-1
 192 64 l 1,8,-1
0 192 m 1,12,-1
 0 320 l 1,13,-1
 64 320 l 1,14,-1
 64 192 l 1,15,-1
 0 192 l 1,12,-1
256 192 m 1,16,-1
 256 320 l 1,17,-1
 320 320 l 1,18,-1
 320 192 l 1,19,-1
 256 192 l 1,16,-1
EndSplineSet
Validated: 5
EndChar

StartChar: w
Encoding: 119 119 90
Width: 384
GlyphClass: 2
Flags: W
LayerCount: 2
Fore
SplineSet
64 0 m 1,0,-1
 64 64 l 1,1,-1
 128 64 l 1,2,-1
 128 0 l 1,3,-1
 64 0 l 1,0,-1
192 0 m 1,4,-1
 192 64 l 1,5,-1
 256 64 l 1,6,-1
 256 0 l 1,7,-1
 192 0 l 1,4,-1
0 64 m 1,8,-1
 0 320 l 1,9,-1
 64 320 l 1,10,-1
 64 64 l 1,11,-1
 0 64 l 1,8,-1
128 64 m 1,12,-1
 128 320 l 1,13,-1
 192 320 l 1,14,-1
 192 64 l 1,15,-1
 128 64 l 1,12,-1
256 64 m 1,16,-1
 256 320 l 1,17,-1
 320 320 l 1,18,-1
 320 64 l 1,19,-1
 256 64 l 1,16,-1
EndSplineSet
Validated: 5
EndChar

StartChar: x
Encoding: 120 120 91
Width: 384
GlyphClass: 2
Flags: W
LayerCount: 2
Fore
SplineSet
0 0 m 1,0,-1
 0 64 l 1,1,-1
 64 64 l 1,2,-1
 64 0 l 1,3,-1
 0 0 l 1,0,-1
256 0 m 1,4,-1
 256 64 l 1,5,-1
 320 64 l 1,6,-1
 320 0 l 1,7,-1
 256 0 l 1,4,-1
64 64 m 1,8,-1
 64 128 l 1,9,-1
 128 128 l 1,10,-1
 128 64 l 1,11,-1
 64 64 l 1,8,-1
192 64 m 1,12,-1
 192 128 l 1,13,-1
 256 128 l 1,14,-1
 256 64 l 1,15,-1
 192 64 l 1,12,-1
128 128 m 1,16,-1
 128 192 l 1,17,-1
 192 192 l 1,18,-1
 192 128 l 1,19,-1
 128 128 l 1,16,-1
64 192 m 1,20,-1
 64 256 l 1,21,-1
 128 256 l 1,22,-1
 128 192 l 1,23,-1
 64 192 l 1,20,-1
192 192 m 1,24,-1
 192 256 l 1,25,-1
 256 256 l 1,26,-1
 256 192 l 1,27,-1
 192 192 l 1,24,-1
0 256 m 1,28,-1
 0 320 l 1,29,-1
 64 320 l 1,30,-1
 64 256 l 1,31,-1
 0 256 l 1,28,-1
256 256 m 1,32,-1
 256 320 l 1,33,-1
 320 320 l 1,34,-1
 320 256 l 1,35,-1
 256 256 l 1,32,-1
EndSplineSet
Validated: 5
EndChar

StartChar: y
Encoding: 121 121 92
Width: 384
GlyphClass: 2
Flags: W
LayerCount: 2
Fore
SplineSet
0 -128 m 1,0,-1
 0 -64 l 1,1,-1
 256 -64 l 1,2,-1
 256 -128 l 1,3,-1
 0 -128 l 1,0,-1
0 64 m 1,4,-1
 0 320 l 1,5,-1
 64 320 l 1,6,-1
 64 64 l 1,7,-1
 0 64 l 1,4,-1
256 -64 m 1,8,-1
 256 0 l 1,9,-1
 64 0 l 1,10,-1
 64 64 l 1,11,-1
 256 64 l 1,12,-1
 256 320 l 1,13,-1
 320 320 l 1,14,-1
 320 -64 l 1,15,-1
 256 -64 l 1,8,-1
EndSplineSet
Validated: 5
EndChar

StartChar: z
Encoding: 122 122 93
Width: 384
GlyphClass: 2
Flags: W
LayerCount: 2
Fore
SplineSet
0 0 m 1,0,-1
 0 64 l 1,1,-1
 64 64 l 1,2,-1
 64 128 l 1,3,-1
 128 128 l 1,4,-1
 128 64 l 1,5,-1
 320 64 l 1,6,-1
 320 0 l 1,7,-1
 0 0 l 1,0,-1
128 128 m 1,8,-1
 128 192 l 1,9,-1
 192 192 l 1,10,-1
 192 128 l 1,11,-1
 128 128 l 1,8,-1
192 192 m 1,12,-1
 192 256 l 1,13,-1
 0 256 l 1,14,-1
 0 320 l 1,15,-1
 320 320 l 1,16,-1
 320 256 l 1,17,-1
 256 256 l 1,18,-1
 256 192 l 1,19,-1
 192 192 l 1,12,-1
EndSplineSet
Validated: 5
EndChar

StartChar: braceleft
Encoding: 123 123 94
Width: 256
GlyphClass: 2
Flags: W
LayerCount: 2
Fore
SplineSet
128 0 m 1,0,-1
 128 64 l 1,1,-1
 192 64 l 1,2,-1
 192 0 l 1,3,-1
 128 0 l 1,0,-1
64 64 m 1,4,-1
 64 320 l 1,5,-1
 128 320 l 1,6,-1
 128 64 l 1,7,-1
 64 64 l 1,4,-1
0 320 m 1,8,-1
 0 384 l 1,9,-1
 64 384 l 1,10,-1
 64 320 l 1,11,-1
 0 320 l 1,8,-1
64 384 m 1,12,-1
 64 640 l 1,13,-1
 128 640 l 1,14,-1
 128 384 l 1,15,-1
 64 384 l 1,12,-1
128 640 m 1,16,-1
 128 704 l 1,17,-1
 192 704 l 1,18,-1
 192 640 l 1,19,-1
 128 640 l 1,16,-1
EndSplineSet
Validated: 5
EndChar

StartChar: braceright
Encoding: 125 125 95
Width: 256
GlyphClass: 2
Flags: W
LayerCount: 2
Fore
SplineSet
0 0 m 1,0,-1
 0 64 l 1,1,-1
 64 64 l 1,2,-1
 64 0 l 1,3,-1
 0 0 l 1,0,-1
64 64 m 1,4,-1
 64 320 l 1,5,-1
 128 320 l 1,6,-1
 128 64 l 1,7,-1
 64 64 l 1,4,-1
128 320 m 1,8,-1
 128 384 l 1,9,-1
 192 384 l 1,10,-1
 192 320 l 1,11,-1
 128 320 l 1,8,-1
64 384 m 1,12,-1
 64 640 l 1,13,-1
 128 640 l 1,14,-1
 128 384 l 1,15,-1
 64 384 l 1,12,-1
0 640 m 1,16,-1
 0 704 l 1,17,-1
 64 704 l 1,18,-1
 64 640 l 1,19,-1
 0 640 l 1,16,-1
EndSplineSet
Validated: 5
EndChar

StartChar: asciitilde
Encoding: 126 126 96
Width: 448
GlyphClass: 2
Flags: W
LayerCount: 2
Fore
SplineSet
0 192 m 1,0,-1
 0 256 l 1,1,-1
 64 256 l 1,2,-1
 64 192 l 1,3,-1
 0 192 l 1,0,-1
192 192 m 1,4,-1
 192 256 l 1,5,-1
 320 256 l 1,6,-1
 320 192 l 1,7,-1
 192 192 l 1,4,-1
64 256 m 1,8,-1
 64 320 l 1,9,-1
 192 320 l 1,10,-1
 192 256 l 1,11,-1
 64 256 l 1,8,-1
320 256 m 1,12,-1
 320 320 l 1,13,-1
 384 320 l 1,14,-1
 384 256 l 1,15,-1
 320 256 l 1,12,-1
EndSplineSet
Validated: 5
EndChar

StartChar: sterling
Encoding: 163 163 97
Width: 384
GlyphClass: 2
Flags: W
LayerCount: 2
Fore
SplineSet
64 0 m 1,0,-1
 64 64 l 1,1,-1
 256 64 l 1,2,-1
 256 0 l 1,3,-1
 64 0 l 1,0,-1
0 64 m 1,4,-1
 0 256 l 1,5,-1
 64 256 l 1,6,-1
 64 64 l 1,7,-1
 0 64 l 1,4,-1
256 64 m 1,8,-1
 256 256 l 1,9,-1
 320 256 l 1,10,-1
 320 64 l 1,11,-1
 256 64 l 1,8,-1
0 448 m 1,12,-1
 0 512 l 1,13,-1
 64 512 l 1,14,-1
 64 448 l 1,15,-1
 0 448 l 1,12,-1
256 448 m 1,16,-1
 256 512 l 1,17,-1
 320 512 l 1,18,-1
 320 448 l 1,19,-1
 256 448 l 1,16,-1
64 256 m 1,20,-1
 64 320 l 1,21,-1
 128 320 l 1,22,-1
 128 512 l 1,23,-1
 64 512 l 1,24,-1
 64 576 l 1,25,-1
 128 576 l 1,26,-1
 128 640 l 1,27,-1
 192 640 l 1,28,-1
 192 576 l 1,29,-1
 256 576 l 1,30,-1
 256 512 l 1,31,-1
 192 512 l 1,32,-1
 192 320 l 1,33,-1
 256 320 l 1,34,-1
 256 256 l 1,35,-1
 64 256 l 1,20,-1
EndSplineSet
Validated: 5
EndChar

StartChar: logicalnot
Encoding: 172 172 98
Width: 384
GlyphClass: 2
Flags: W
LayerCount: 2
Fore
SplineSet
128 0 m 1,0,-1
 128 192 l 1,1,-1
 0 192 l 1,2,-1
 0 256 l 1,3,-1
 128 256 l 1,4,-1
 128 320 l 1,5,-1
 64 320 l 1,6,-1
 64 384 l 1,7,-1
 256 384 l 1,8,-1
 256 320 l 1,9,-1
 192 320 l 1,10,-1
 192 256 l 1,11,-1
 320 256 l 1,12,-1
 320 192 l 1,13,-1
 192 192 l 1,14,-1
 192 0 l 1,15,-1
 128 0 l 1,0,-1
0 384 m 1,16,-1
 0 576 l 1,17,-1
 64 576 l 1,18,-1
 64 384 l 1,19,-1
 0 384 l 1,16,-1
256 384 m 1,20,-1
 256 576 l 1,21,-1
 320 576 l 1,22,-1
 320 384 l 1,23,-1
 256 384 l 1,20,-1
64 576 m 1,24,-1
 64 640 l 1,25,-1
 256 640 l 1,26,-1
 256 576 l 1,27,-1
 64 576 l 1,24,-1
EndSplineSet
Validated: 5
EndChar

StartChar: eacute
Encoding: 233 233 99
Width: 384
GlyphClass: 2
Flags: W
LayerCount: 2
Fore
SplineSet
64 0 m 1,0,-1
 64 64 l 1,1,-1
 320 64 l 1,2,-1
 320 0 l 1,3,-1
 64 0 l 1,0,-1
0 64 m 1,4,-1
 0 256 l 1,5,-1
 64 256 l 1,6,-1
 64 192 l 1,7,-1
 256 192 l 1,8,-1
 256 256 l 1,9,-1
 320 256 l 1,10,-1
 320 128 l 1,11,-1
 64 128 l 1,12,-1
 64 64 l 1,13,-1
 0 64 l 1,4,-1
64 256 m 1,14,-1
 64 320 l 1,15,-1
 256 320 l 1,16,-1
 256 256 l 1,17,-1
 64 256 l 1,14,-1
64 384 m 1,18,-1
 64 448 l 1,19,-1
 128 448 l 1,20,-1
 128 384 l 1,21,-1
 64 384 l 1,18,-1
128 448 m 1,22,-1
 128 512 l 1,23,-1
 256 512 l 1,24,-1
 256 448 l 1,25,-1
 128 448 l 1,22,-1
EndSplineSet
Validated: 5
EndChar

StartChar: quoteleft
Encoding: 8216 8216 100
Width: 192
GlyphClass: 2
Flags: W
LayerCount: 2
Fore
SplineSet
0 512 m 1,0,-1
 0 576 l 1,1,-1
 64 576 l 1,2,-1
 64 512 l 1,3,-1
 0 512 l 1,0,-1
64 576 m 1,4,-1
 64 640 l 1,5,-1
 0 640 l 1,6,-1
 0 768 l 1,7,-1
 128 768 l 1,8,-1
 128 576 l 1,9,-1
 64 576 l 1,4,-1
EndSplineSet
Validated: 5
EndChar

StartChar: quoteright
Encoding: 8217 8217 101
Width: 192
GlyphClass: 2
Flags: W
LayerCount: 2
Fore
SplineSet
0 512 m 1,0,-1
 0 576 l 1,1,-1
 64 576 l 1,2,-1
 64 512 l 1,3,-1
 0 512 l 1,0,-1
64 576 m 1,4,-1
 64 640 l 1,5,-1
 0 640 l 1,6,-1
 0 768 l 1,7,-1
 128 768 l 1,8,-1
 128 576 l 1,9,-1
 64 576 l 1,4,-1
EndSplineSet
Validated: 5
EndChar

StartChar: quotedblleft
Encoding: 8220 8220 102
Width: 384
GlyphClass: 2
Flags: W
LayerCount: 2
Fore
SplineSet
0 512 m 1,0,-1
 0 704 l 1,1,-1
 64 704 l 1,2,-1
 64 640 l 1,3,-1
 128 640 l 1,4,-1
 128 512 l 1,5,-1
 0 512 l 1,0,-1
192 512 m 1,6,-1
 192 704 l 1,7,-1
 256 704 l 1,8,-1
 256 640 l 1,9,-1
 320 640 l 1,10,-1
 320 512 l 1,11,-1
 192 512 l 1,6,-1
64 704 m 1,12,-1
 64 768 l 1,13,-1
 128 768 l 1,14,-1
 128 704 l 1,15,-1
 64 704 l 1,12,-1
256 704 m 1,16,-1
 256 768 l 1,17,-1
 320 768 l 1,18,-1
 320 704 l 1,19,-1
 256 704 l 1,16,-1
EndSplineSet
Validated: 5
EndChar

StartChar: quotedblright
Encoding: 8221 8221 103
Width: 384
GlyphClass: 2
Flags: W
LayerCount: 2
Fore
SplineSet
0 512 m 1,0,-1
 0 576 l 1,1,-1
 64 576 l 1,2,-1
 64 512 l 1,3,-1
 0 512 l 1,0,-1
192 512 m 1,4,-1
 192 576 l 1,5,-1
 256 576 l 1,6,-1
 256 512 l 1,7,-1
 192 512 l 1,4,-1
64 576 m 1,8,-1
 64 640 l 1,9,-1
 0 640 l 1,10,-1
 0 768 l 1,11,-1
 128 768 l 1,12,-1
 128 576 l 1,13,-1
 64 576 l 1,8,-1
256 576 m 1,14,-1
 256 640 l 1,15,-1
 192 640 l 1,16,-1
 192 768 l 1,17,-1
 320 768 l 1,18,-1
 320 576 l 1,19,-1
 256 576 l 1,14,-1
EndSplineSet
Validated: 5
EndChar

StartChar: Euro
Encoding: 8364 8364 104
Width: 384
GlyphClass: 2
Flags: W
LayerCount: 2
Fore
SplineSet
64 0 m 1,0,-1
 64 64 l 1,1,-1
 320 64 l 1,2,-1
 320 0 l 1,3,-1
 64 0 l 1,0,-1
0 64 m 1,4,-1
 0 256 l 1,5,-1
 64 256 l 1,6,-1
 64 192 l 1,7,-1
 256 192 l 1,8,-1
 256 256 l 1,9,-1
 320 256 l 1,10,-1
 320 128 l 1,11,-1
 64 128 l 1,12,-1
 64 64 l 1,13,-1
 0 64 l 1,4,-1
64 256 m 1,14,-1
 64 320 l 1,15,-1
 256 320 l 1,16,-1
 256 256 l 1,17,-1
 64 256 l 1,14,-1
64 384 m 1,18,-1
 64 448 l 1,19,-1
 128 448 l 1,20,-1
 128 384 l 1,21,-1
 64 384 l 1,18,-1
128 448 m 1,22,-1
 128 512 l 1,23,-1
 256 512 l 1,24,-1
 256 448 l 1,25,-1
 128 448 l 1,22,-1
EndSplineSet
Validated: 5
EndChar

StartChar: uni00B2
Encoding: 178 178 105
Width: 512
VWidth: 0
Flags: W
LayerCount: 2
Fore
SplineSet
384 128 m 1,0,-1
 448 128 l 1,1,-1
 448 -128 l 1,2,-1
 384 -128 l 1,3,-1
 384 128 l 1,0,-1
384 384 m 1,4,-1
 448 384 l 1,5,-1
 448 192 l 1,6,-1
 384 192 l 1,7,-1
 384 384 l 1,4,-1
256 384 m 1,8,-1
 320 384 l 1,9,-1
 320 191 l 1,10,-1
 384 192 l 1,11,-1
 384 128 l 1,12,-1
 320 128 l 1,13,-1
 320 -128 l 1,14,-1
 256 -128 l 1,15,-1
 256 384 l 1,8,-1
128 640 m 1,16,-1
 64 640 l 1,17,-1
 64 512 l 1,18,-1
 128 512 l 1,19,-1
 128 640 l 1,16,-1
192 448 m 1,20,-1
 64 448 l 1,21,-1
 64 192 l 1,22,-1
 0 192 l 1,23,-1
 0 448 l 1,24,-1
 0 704 l 1,25,-1
 192 704 l 1,26,-1
 192 448 l 1,20,-1
EndSplineSet
Validated: 5
EndChar

StartChar: uni00B3
Encoding: 179 179 106
Width: 512
VWidth: 0
Flags: W
LayerCount: 2
Fore
SplineSet
320 128 m 1,0,-1
 384 128 l 1,1,-1
 384 384 l 1,2,-1
 448 384 l 1,3,-1
 448 -128 l 1,4,-1
 384 -128 l 1,5,-1
 384 0 l 1,6,-1
 320 0 l 1,7,-1
 320 128 l 1,0,-1
0 192 m 1,8,-1
 0 704 l 1,9,-1
 64 704 l 1,10,-1
 64 640 l 1,11,-1
 192 640 l 1,12,-1
 192 704 l 1,13,-1
 256 704 l 1,14,-1
 256 256 l 1,15,-1
 320 256 l 1,16,-1
 320 128 l 1,17,-1
 256 128 l 1,18,-1
 256 -128 l 1,19,-1
 192 -128 l 1,20,-1
 192 576 l 1,21,-1
 64 576 l 1,22,-1
 64 192 l 1,23,-1
 0 192 l 1,8,-1
EndSplineSet
Validated: 5
EndChar

StartChar: currency
Encoding: 164 164 107
Width: 448
VWidth: 0
Flags: W
LayerCount: 2
Fore
SplineSet
320 64 m 1,0,-1
 384 64 l 1,1,-1
 384 0 l 1,2,-1
 320 0 l 1,3,-1
 320 64 l 1,0,-1
384 256 m 1,4,-1
 448 256 l 1,5,-1
 448 64 l 1,6,-1
 384 64 l 1,7,-1
 384 256 l 1,4,-1
256 256 m 1,8,-1
 320 256 l 1,9,-1
 320 64 l 1,10,-1
 256 64 l 1,11,-1
 256 256 l 1,8,-1
0 448 m 1,12,-1
 64 448 l 1,13,-1
 64 64 l 1,14,-1
 192 64 l 1,15,-1
 192 0 l 1,16,-1
 0 0 l 1,17,-1
 0 448 l 1,12,-1
EndSplineSet
Validated: 5
EndChar
